<?xml version="1.0" standalone="no"?>
<!DOCTYPE svg PUBLIC "-//W3C//DTD SVG 1.1//EN" "http://www.w3.org/Graphics/SVG/1.1/DTD/svg11.dtd" >
<svg xmlns="http://www.w3.org/2000/svg" xmlns:xlink="http://www.w3.org/1999/xlink" version="1.1">
<metadata>
Created by FontForge 20161013 at Wed Jan 23 19:04:12 2013
 By ,,,
Copyright (c) 2012 by TypeTogether. All rights reserved.
</metadata>
<defs>
<font id="TabletGothicNarrow-SemiBold" horiz-adv-x="500" >
  <font-face 
    font-family="Tablet Gothic Narrow Sb"
    font-weight="600"
    font-stretch="normal"
    units-per-em="1000"
    panose-1="2 0 5 3 0 0 0 2 0 4"
    ascent="755"
    descent="-245"
    x-height="515"
    cap-height="734"
    bbox="-149 -252 966 1053"
    underline-thickness="50"
    underline-position="-200"
    unicode-range="U+0020-FB04"
  />
<missing-glyph horiz-adv-x="177" 
 />
    <glyph glyph-name="ij" unicode="ij" horiz-adv-x="462" 
d="M56 616v118h119v-118h-119zM56 0v515h119v-515h-119zM290 616v118h118v-118h-118zM157 -184l13 86q30 -8 54 -8q36 0 51 22.5t15 75.5v523h118v-514q0 -104 -42.5 -150t-125.5 -46q-43 0 -83 11z" />
    <glyph glyph-name="ff" unicode="ff" horiz-adv-x="611" 
d="M195 428v-428h-118v428h-61v87h61v31q0 100 42 148t128 48q43 0 87 -13l-13 -87q-34 9 -58 9q-37 0 -52.5 -23.5t-15.5 -74.5v-38h176v35q0 100 42 148.5t129 48.5q42 0 90 -14l-13 -87q-32 10 -61 10q-37 0 -53 -24t-16 -76v-41h113v-87h-113v-428h-118v428h-176z" />
    <glyph glyph-name="fi" unicode="fi" horiz-adv-x="546" 
d="M316 736v-89q-30 8 -54 8q-36 0 -51.5 -22.5t-15.5 -70.5v-47h295v-515h-119v428h-176v-428h-118v428h-61v87h61v35q0 101 41 149t128 48q33 0 70 -11zM372 616v118h118v-118h-118z" />
    <glyph glyph-name="fl" unicode="fl" horiz-adv-x="546" 
d="M316 736v-89q-30 8 -54 8q-36 0 -51.5 -22.5t-15.5 -70.5v-47h107v-87h-107v-428h-118v428h-61v87h61v35q0 101 41 149t128 48q33 0 70 -11zM489 734v-734h-118v734h118z" />
    <glyph glyph-name="ffi" unicode="ffi" horiz-adv-x="840" 
d="M610 736v-89q-30 8 -54 8q-36 0 -51.5 -22.5t-15.5 -70.5v-47h295v-515h-119v428h-176v-428h-118v428h-176v-428h-118v428h-61v87h61v30q0 100 42 148.5t128 48.5q43 0 87 -13l-13 -88q-32 10 -58 10q-37 0 -52.5 -23.5t-15.5 -75.5v-37h176v35q0 101 41 149t128 48
q33 0 70 -11zM666 616v118h118v-118h-118z" />
    <glyph glyph-name="ffl" unicode="ffl" horiz-adv-x="840" 
d="M610 736v-89q-30 8 -54 8q-36 0 -51.5 -22.5t-15.5 -70.5v-47h107v-87h-107v-428h-118v428h-176v-428h-118v428h-61v87h61v30q0 100 42 148.5t128 48.5q43 0 87 -13l-13 -88q-32 10 -58 10q-37 0 -52.5 -24t-15.5 -75v-37h176v35q0 101 41 149t128 48q33 0 70 -11z
M783 734v-734h-118v734h118z" />
    <glyph glyph-name="t_t" unicode="tt" horiz-adv-x="636" 
d="M195 430v-256q0 -53 13.5 -74.5t51.5 -21.5q26 0 55 9l11 -84q-36 -15 -95 -15q-78 0 -116 41.5t-38 131.5v269h-61v85h61v105l118 36v-141h178v105l118 36v-141h114v-85h-114v-256q0 -53 14.5 -74.5t52.5 -21.5q24 0 58 9l11 -84q-41 -15 -97 -15q-80 0 -118.5 41
t-38.5 132v269h-178z" />
    <glyph glyph-name=".notdef" horiz-adv-x="177" 
 />
    <glyph glyph-name=".notdef" horiz-adv-x="177" 
 />
    <glyph glyph-name=".null" horiz-adv-x="0" 
 />
    <glyph glyph-name="nonmarkingreturn" horiz-adv-x="333" 
 />
    <glyph glyph-name="space" unicode=" " horiz-adv-x="177" 
 />
    <glyph glyph-name="exclam" unicode="!" horiz-adv-x="294" 
d="M203 204h-111l-11 530h133zM85 0v130h125v-130h-125z" />
    <glyph glyph-name="quotedbl" unicode="&#x22;" horiz-adv-x="351" 
d="M182 734h93l-11 -210h-74zM75 734h93l-11 -210h-74z" />
    <glyph glyph-name="numbersign" unicode="#" horiz-adv-x="629" 
d="M431 0h-99l18 127h-118l-19 -127h-99l19 127h-90l14 84h89l21 145h-94l13 85h93l17 114h99l-17 -114h119l17 114h99l-17 -114h90l-13 -85h-89l-21 -145h96l-14 -84h-95zM363 211l21 145h-119l-21 -145h119z" />
    <glyph glyph-name="dollar" unicode="$" horiz-adv-x="553" 
d="M504 512l-110 -19q-11 106 -70 129v-200q35 -10 55.5 -16.5t49.5 -22.5t45 -34.5t28 -50t12 -71.5q0 -92 -52 -147t-138 -68v-77h-81v75q-97 7 -147.5 61t-60.5 162l117 16q6 -62 26.5 -96t64.5 -43v217q-35 9 -55.5 16t-49.5 22.5t-44.5 35t-27.5 51.5t-12 74
q0 84 52 135.5t137 61.5v74h81v-73q165 -21 180 -212zM394 206q0 65 -70 96v-191q70 18 70 95zM243 624q-66 -15 -66 -86q0 -61 66 -90v176z" />
    <glyph glyph-name="percent" unicode="%" horiz-adv-x="817" 
d="M170 25l407 728l79 -41l-408 -730zM626 -10q-165 0 -165 197q0 94 46 148t128 54q161 0 161 -195q0 -204 -170 -204zM629 58q40 0 57.5 32t17.5 102q0 67 -16.5 97t-56.5 30q-77 0 -77 -129q0 -68 17 -100t58 -32zM187 335q-166 0 -166 198q0 94 46 147.5t129 53.5
q161 0 161 -195q0 -204 -170 -204zM190 404q40 0 57 31t17 102q0 67 -16.5 97t-55.5 30q-78 0 -78 -129q0 -67 17.5 -99t58.5 -32z" />
    <glyph glyph-name="ampersand" unicode="&#x26;" horiz-adv-x="688" 
d="M421 151l-167 189q-89 -61 -89 -144q0 -54 32 -81t82 -27q77 0 142 63zM485 529l-109 14q7 18 7 43q0 33 -19 51.5t-54 18.5q-71 0 -71 -72q0 -54 61 -124l189 -217q33 67 40 181l108 -13q-12 -152 -69 -255l89 -101l-85 -73l-82 92q-100 -86 -230 -86q-109 0 -165 52.5
t-56 137.5q0 145 152 234q-71 81 -71 164q0 75 51.5 122.5t142.5 47.5q83 0 131 -41t48 -111q0 -33 -8 -65z" />
    <glyph glyph-name="quotesingle" unicode="'" horiz-adv-x="214" 
d="M60 734h93l-11 -210h-74z" />
    <glyph glyph-name="parenleft" unicode="(" horiz-adv-x="310" 
d="M208 793l72 -23q-108 -214 -108 -434q0 -228 107 -451l-70 -29q-87 114 -127 227t-40 246q0 234 166 464z" />
    <glyph glyph-name="parenright" unicode=")" horiz-adv-x="310" 
d="M102 -143l-72 24q107 215 107 436q0 224 -106 449l69 28q86 -111 126.5 -224t40.5 -246q0 -237 -165 -467z" />
    <glyph glyph-name="asterisk" unicode="*" horiz-adv-x="384" 
d="M152 734h81l-22 -130l117 61l25 -77l-131 -18l94 -93l-66 -48l-58 114l-59 -113l-66 48l93 93l-128 18l25 77l116 -61z" />
    <glyph glyph-name="plus" unicode="+" horiz-adv-x="545" 
d="M455 295h-142v-142h-82v142h-141v82h141v141h82v-141h142v-82z" />
    <glyph glyph-name="comma" unicode="," horiz-adv-x="226" 
d="M54 0v130h128v-110l-67 -155l-52 15l28 120h-37z" />
    <glyph glyph-name="hyphen" unicode="-" horiz-adv-x="316" 
d="M287 232h-258v94h258v-94z" />
    <glyph glyph-name="period" unicode="." horiz-adv-x="241" 
d="M58 0v130h125v-130h-125z" />
    <glyph glyph-name="slash" unicode="/" horiz-adv-x="387" 
d="M-27 -63l331 845l98 -34l-331 -849z" />
    <glyph glyph-name="zero" unicode="0" horiz-adv-x="601" 
d="M297 -12q-132 0 -192.5 95t-60.5 282q0 185 69 283.5t198 98.5t187.5 -93.5t58.5 -275.5q0 -390 -260 -390zM302 84q72 0 101.5 69t29.5 220q0 144 -29 210t-98 66q-70 0 -103.5 -69t-33.5 -211q0 -147 30 -216t103 -69z" />
    <glyph glyph-name="one" unicode="1" horiz-adv-x="357" 
d="M39 535l-25 97q95 35 173 102h82v-734h-120v590q-34 -28 -110 -55z" />
    <glyph glyph-name="two" unicode="2" horiz-adv-x="507" 
d="M186 102h265v-102h-396q-2 22 -2 40q0 45 6 75q7 52 39 101.5t72 88.5t79.5 77.5t66 83.5t26.5 91q0 48 -24 71t-65 23q-57 0 -74 -40.5t-6 -116.5l-113 -8q-22 113 27.5 187t171.5 74q98 0 152 -50t54 -140q0 -60 -28.5 -114.5t-69 -95.5t-81.5 -79t-70 -81t-30 -85z
" />
    <glyph glyph-name="three" unicode="3" horiz-adv-x="521" 
d="M191 329l-8 94q82 2 120.5 31t38.5 97q0 100 -92 100q-55 0 -74.5 -36.5t-8.5 -118.5l-114 -7q-20 112 29.5 185t171.5 73q97 0 154 -47.5t57 -136.5q0 -139 -137 -177q73 -15 111 -64t38 -119q0 -103 -58.5 -159t-160.5 -56q-116 0 -166 58.5t-55 170.5l118 7
q4 -73 27.5 -106.5t77.5 -33.5q42 0 68.5 29.5t26.5 89.5q0 74 -40.5 101.5t-123.5 24.5z" />
    <glyph glyph-name="four" unicode="4" horiz-adv-x="523" 
d="M132 244h171v341h-3zM421 734v-490h79v-103h-79v-141h-118v141h-284v81l258 512h144z" />
    <glyph glyph-name="five" unicode="5" horiz-adv-x="527" 
d="M261 387q-67 0 -102 -69l-96 9l25 407h364v-103h-265l-21 -207q47 59 131 59t135 -60t51 -179q0 -122 -57.5 -189t-169.5 -67q-111 0 -159 60t-55 168l118 8q5 -76 30 -108t72 -32t73 39t26 114q0 150 -100 150z" />
    <glyph glyph-name="six" unicode="6" horiz-adv-x="552" 
d="M304 651q-61 0 -91 -59.5t-37 -200.5q51 72 146 72q81 0 134.5 -57.5t53.5 -169.5q0 -123 -60 -185.5t-166 -62.5q-123 0 -176 80t-53 259q0 420 256 420q199 0 185 -214l-114 -8q8 126 -78 126zM283 372q-49 0 -78.5 -33t-29.5 -98q0 -157 110 -157q104 0 104 147
q0 71 -25.5 106t-80.5 35z" />
    <glyph glyph-name="seven" unicode="7" horiz-adv-x="439" 
d="M239 0h-129q8 355 194 631h-278v103h402v-76q-104 -150 -143.5 -301.5t-45.5 -356.5z" />
    <glyph glyph-name="eight" unicode="8" horiz-adv-x="561" 
d="M275 -12q-121 0 -177.5 57t-56.5 153q0 152 134 201q-107 37 -107 158q0 87 58 138.5t161 51.5t154 -49t51 -132q0 -59 -28.5 -102t-82.5 -62q139 -40 139 -193q0 -101 -60 -161t-185 -60zM278 84q61 0 91.5 35.5t30.5 97.5q0 63 -28.5 100.5t-89.5 37.5
q-59 0 -89.5 -37.5t-30.5 -103.5q0 -130 116 -130zM279 443q92 0 92 112q0 104 -90 104q-91 0 -91 -106q0 -110 89 -110z" />
    <glyph glyph-name="nine" unicode="9" horiz-adv-x="552" 
d="M260 85q60 0 88.5 63t33.5 196q-48 -72 -143 -72q-82 0 -137 56.5t-55 165.5q0 123 61.5 188t167.5 65q119 0 172.5 -79t53.5 -253q0 -214 -58 -320.5t-188 -106.5q-204 0 -206 214l115 9q3 -68 24.5 -97t70.5 -29zM273 363q49 0 79 34t30 103q0 151 -109 151
q-55 0 -80.5 -41.5t-25.5 -106.5q0 -140 106 -140z" />
    <glyph glyph-name="colon" unicode=":" horiz-adv-x="241" 
d="M59 0v130h124v-130h-124zM59 386v130h124v-130h-124z" />
    <glyph glyph-name="semicolon" unicode=";" horiz-adv-x="226" 
d="M58 386v130h124v-130h-124zM54 0v130h128v-110l-67 -155l-52 15l28 120h-37z" />
    <glyph glyph-name="less" unicode="&#x3c;" horiz-adv-x="545" 
d="M455 100l-365 130v107l365 144v-98l-276 -97l276 -90v-96z" />
    <glyph glyph-name="equal" unicode="=" horiz-adv-x="545" 
d="M455 190h-365v82h365v-82zM455 345h-365v81h365v-81z" />
    <glyph glyph-name="greater" unicode="&#x3e;" horiz-adv-x="545" 
d="M90 481l365 -131v-107l-365 -143v97l276 97l-276 90v97z" />
    <glyph glyph-name="question" unicode="?" horiz-adv-x="491" 
d="M327 522q0 128 -91 128q-45 0 -65.5 -31.5t-23.5 -97.5l-114 8q5 218 207 218q102 0 156.5 -59t54.5 -165q0 -200 -180 -237l-6 -90h-111l-6 166q100 3 139.5 41t39.5 119zM145 0v130h125v-130h-125z" />
    <glyph glyph-name="at" unicode="@" horiz-adv-x="794" 
d="M600 -29l42 -55q-40 -42 -104.5 -63.5t-138.5 -21.5q-164 0 -259.5 91t-95.5 266q0 171 101.5 275t267.5 104q151 0 244 -81t93 -236q0 -128 -44 -190t-123 -62q-82 0 -112 56q-41 -62 -123 -62q-68 0 -100.5 44t-32.5 116q0 101 45.5 173t133.5 72q61 0 92 -50l11 44h77
l-28 -239q-6 -46 3 -69.5t44 -23.5q79 0 79 176q0 138 -67.5 201t-198.5 63t-205.5 -86.5t-74.5 -225.5q0 -144 75.5 -215t203.5 -71q125 0 195 70zM462 153l11 101q4 38 -14 58.5t-52 20.5q-54 0 -78.5 -51.5t-25.5 -124.5q0 -98 67 -98q36 0 61.5 25.5t30.5 68.5z" />
    <glyph glyph-name="A" unicode="A" horiz-adv-x="620" 
d="M229 734h158l228 -734h-128l-56 186h-247l-54 -186h-125zM404 285l-97 332h-2l-96 -332h195z" />
    <glyph glyph-name="B" unicode="B" horiz-adv-x="589" 
d="M289 0h-213v734h226q120 0 172.5 -46t52.5 -133q0 -71 -40.5 -114.5t-101.5 -56.5v-2q167 -16 167 -175q0 -207 -263 -207zM200 100h75q77 0 114.5 24.5t37.5 89.5q0 112 -132 112h-95v-226zM200 422h52q148 0 148 119q0 50 -27.5 72t-89.5 22h-83v-213z" />
    <glyph glyph-name="C" unicode="C" horiz-adv-x="599" 
d="M317 88q112 0 122 162l119 -9q-10 -131 -72.5 -192t-176.5 -61q-264 0 -264 371q0 192 76.5 290t211.5 98q112 0 171.5 -71t57.5 -196l-120 -10q0 95 -30.5 135t-87.5 40q-148 0 -148 -283q0 -142 34.5 -208t106.5 -66z" />
    <glyph glyph-name="D" unicode="D" horiz-adv-x="620" 
d="M219 0h-143v734h145q195 0 275 -85t80 -271q0 -200 -80.5 -289t-276.5 -89zM200 101h38q113 0 161.5 60.5t48.5 210.5q0 141 -46.5 201t-161.5 60h-40v-532z" />
    <glyph glyph-name="E" unicode="E" horiz-adv-x="522" 
d="M436 426v-99h-236v-225h285v-102h-409v734h390v-102h-266v-206h236z" />
    <glyph glyph-name="F" unicode="F" horiz-adv-x="492" 
d="M432 412v-99h-232v-313h-124v734h389v-102h-265v-220h232z" />
    <glyph glyph-name="G" unicode="G" horiz-adv-x="632" 
d="M325 270v95h243v-377h-84l-13 89q-56 -89 -168 -89q-127 0 -192.5 92t-65.5 271q0 199 76.5 297.5t212.5 98.5q112 0 170 -69.5t57 -197.5l-120 -10q-1 175 -116 175q-148 0 -148 -285q0 -141 36 -206.5t109 -65.5q58 0 94 42.5t39 119.5v20h-130z" />
    <glyph glyph-name="H" unicode="H" horiz-adv-x="657" 
d="M581 734v-734h-125v314h-256v-314h-124v734h124v-316h256v316h125z" />
    <glyph glyph-name="I" unicode="I" horiz-adv-x="358" 
d="M240 647v-560h72v-87h-266v87h71v560h-71v87h266v-87h-72z" />
    <glyph glyph-name="J" unicode="J" horiz-adv-x="508" 
d="M20 217l117 10q1 -25 3 -41t8 -36t15 -31.5t26 -19.5t40 -8q46 0 66.5 28.5t20.5 96.5v518h123v-527q0 -107 -54 -163t-159 -56q-204 0 -206 229z" />
    <glyph glyph-name="K" unicode="K" horiz-adv-x="610" 
d="M200 734v-329l258 329h137l-243 -303l254 -431h-141l-196 327l-69 -86v-241h-124v734h124z" />
    <glyph glyph-name="L" unicode="L" horiz-adv-x="487" 
d="M200 734v-632h256v-102h-380v734h124z" />
    <glyph glyph-name="M" unicode="M" horiz-adv-x="822" 
d="M472 0h-119l-157 582h-3v-582h-117v734h185l152 -599h3l149 599h181v-734h-116v582h-4z" />
    <glyph glyph-name="N" unicode="N" horiz-adv-x="668" 
d="M592 0h-141l-259 549h-1v-549h-115v734h151l250 -547h1v547h114v-734z" />
    <glyph glyph-name="O" unicode="O" horiz-adv-x="641" 
d="M317 -12q-140 0 -206 95.5t-66 281.5q0 184 75 283t213 99q136 0 199.5 -93.5t63.5 -275.5q0 -390 -279 -390zM322 88q78 0 112 69t34 216q0 140 -32.5 205.5t-107.5 65.5q-154 0 -154 -275q0 -143 34.5 -212t113.5 -69z" />
    <glyph glyph-name="P" unicode="P" horiz-adv-x="572" 
d="M200 271v-271h-124v734h230q235 0 235 -215q0 -248 -265 -248h-76zM200 367h64q77 0 113.5 34t36.5 110q0 63 -30 93t-97 30h-87v-267z" />
    <glyph glyph-name="Q" unicode="Q" horiz-adv-x="641" 
d="M317 -12q-140 0 -206 95.5t-66 281.5q0 184 75 283t213 99q136 0 199.5 -93.5t63.5 -275.5q0 -270 -134 -354l76 -140l-88 -41l-99 147q-22 -2 -34 -2zM322 88q78 0 112 69t34 216q0 140 -32.5 205.5t-107.5 65.5q-154 0 -154 -275q0 -143 34.5 -212t113.5 -69z" />
    <glyph glyph-name="R" unicode="R" horiz-adv-x="587" 
d="M427 0l-144 308h-7h-76v-308h-124v734h229q236 0 236 -201q0 -163 -136 -208l157 -325h-135zM200 404h66q78 0 113 26.5t35 95.5q0 56 -31 82t-97 26h-86v-230z" />
    <glyph glyph-name="S" unicode="S" horiz-adv-x="564" 
d="M518 528l-119 -20q-7 71 -35.5 105t-83.5 34q-50 0 -77 -25t-27 -71q0 -48 30.5 -72t90.5 -44q98 -30 128 -45q101 -53 101 -174q0 -108 -68 -168t-176 -60q-119 0 -182.5 55.5t-73.5 173.5l126 17q7 -75 36 -109.5t97 -34.5q56 0 85.5 27.5t29.5 77.5q0 54 -34.5 80
t-100.5 45q-99 30 -135 52q-83 53 -83 165q0 98 66.5 154.5t172.5 56.5q215 0 232 -220z" />
    <glyph glyph-name="T" unicode="T" horiz-adv-x="517" 
d="M197 0v632h-189v102h501v-102h-188v-632h-124z" />
    <glyph glyph-name="U" unicode="U" horiz-adv-x="650" 
d="M458 283v451h123v-479q0 -267 -260 -267q-136 0 -193.5 68.5t-57.5 200.5v477h122v-450q0 -103 29.5 -149t104.5 -46q74 0 103 45t29 149z" />
    <glyph glyph-name="V" unicode="V" horiz-adv-x="604" 
d="M478 734h124l-220 -734h-157l-223 734h128l175 -618h1z" />
    <glyph glyph-name="W" unicode="W" horiz-adv-x="886" 
d="M717 0h-158l-115 544h-4l-112 -544h-159l-156 734h127l108 -616h4l130 616h124l132 -615h3l109 615h123z" />
    <glyph glyph-name="X" unicode="X" horiz-adv-x="587" 
d="M140 0h-136l201 380l-194 354h139l139 -272h2l139 272h133l-192 -355l212 -379h-140l-157 286h-2z" />
    <glyph glyph-name="Y" unicode="Y" horiz-adv-x="559" 
d="M342 281v-281h-122v277l-225 457h137l150 -334l154 334h128z" />
    <glyph glyph-name="Z" unicode="Z" horiz-adv-x="512" 
d="M34 632v102h443v-94l-309 -538h311v-102h-455v94l309 538h-299z" />
    <glyph glyph-name="bracketleft" unicode="[" horiz-adv-x="315" 
d="M286 -51v-81h-223v915h221v-80l-101 -3v-749z" />
    <glyph glyph-name="backslash" unicode="\" horiz-adv-x="328" 
d="M89 782l266 -862l-98 -30l-267 863z" />
    <glyph glyph-name="bracketright" unicode="]" horiz-adv-x="315" 
d="M29 -132v81l103 2v749l-101 3v80h221v-915h-223z" />
    <glyph glyph-name="asciicircum" unicode="^" horiz-adv-x="470" 
d="M197 755h91l159 -366l-95 -34l-111 270h-2l-122 -270l-94 34z" />
    <glyph glyph-name="underscore" unicode="_" horiz-adv-x="417" 
d="M0 -50h417v-89h-417v89z" />
    <glyph glyph-name="grave" unicode="`" 
d="M134 697l74 64l119 -154l-47 -41z" />
    <glyph glyph-name="a" unicode="a" horiz-adv-x="506" 
d="M481 75l3 -73q-36 -9 -62 -9q-75 0 -91 70q-42 -75 -147 -75q-76 0 -113.5 41t-37.5 102q0 39 15 67.5t37 45t62.5 28t76 16.5t93.5 10v29q0 63 -20.5 89t-61.5 26q-43 0 -59.5 -18.5t-16.5 -52.5q0 -19 3 -38l-106 -9q-5 27 -5 47q0 72 47.5 114t144.5 42
q59 0 98.5 -17.5t59 -52.5t26.5 -73t7 -92v-182q0 -38 27 -38q8 0 20 3zM317 171v53q-97 -5 -131 -24.5t-34 -61.5q0 -31 19 -50t53 -19q40 0 66.5 29t26.5 73z" />
    <glyph glyph-name="b" unicode="b" horiz-adv-x="529" 
d="M153 0h-96v734h118v-284h1q17 31 53 54t89 23q77 0 126.5 -59.5t49.5 -198.5q0 -141 -51.5 -210.5t-144.5 -69.5q-89 0 -128 63h-3zM171 258q0 -186 96 -186q52 0 78 46t26 151q0 98 -24.5 135.5t-69.5 37.5q-106 0 -106 -184z" />
    <glyph glyph-name="c" unicode="c" horiz-adv-x="485" 
d="M461 333l-106 -8q-7 112 -92 112q-106 0 -106 -183q0 -89 25 -132.5t80 -43.5q41 0 62.5 24t28.5 79l105 -7q-17 -186 -201 -186q-116 0 -169 71t-53 192q0 131 61 203.5t172 72.5q96 0 143 -53.5t50 -140.5z" />
    <glyph glyph-name="d" unicode="d" horiz-adv-x="527" 
d="M355 734h117v-734h-101l-11 64h-1q-18 -35 -54 -55.5t-82 -20.5q-187 0 -187 258q0 138 51.5 209.5t145.5 71.5q82 0 121 -61h1v268zM359 258q0 99 -25 142t-73 43q-52 0 -77 -46.5t-25 -149.5q0 -96 23.5 -136t72.5 -40q104 0 104 187z" />
    <glyph glyph-name="e" unicode="e" horiz-adv-x="499" 
d="M358 176l102 -9q-22 -179 -201 -179q-224 0 -224 265q0 129 60.5 201.5t172.5 72.5q97 0 146.5 -62t49.5 -176q0 -28 -3 -58h-304q0 -153 106 -153q82 0 95 98zM157 310h191q6 133 -89 133q-97 0 -102 -133z" />
    <glyph glyph-name="f" unicode="f" horiz-adv-x="317" 
d="M16 428v87h61v35q0 100 42 148.5t129 48.5q42 0 90 -14l-13 -87q-32 10 -61 10q-37 0 -53 -24t-16 -76v-41h113v-87h-113v-428h-118v428h-61z" />
    <glyph glyph-name="g" unicode="g" horiz-adv-x="527" 
d="M376 515h96v-477q0 -114 -57 -173.5t-168 -59.5q-168 0 -194 141l107 20q8 -35 27 -53.5t62 -18.5q54 0 80 31.5t26 102.5v53h-1q-39 -73 -135 -73q-83 0 -133 57t-50 187q0 138 53 206.5t144 68.5q89 0 126 -65h3zM358 260q0 97 -24 140t-72 43q-103 0 -103 -189
q0 -92 23.5 -127t71.5 -35q104 0 104 168z" />
    <glyph glyph-name="h" unicode="h" horiz-adv-x="531" 
d="M479 325v-325h-119v316q0 56 -17 87t-63 31q-105 0 -105 -148v-286h-118v734h118v-286h1q48 79 144 79q159 0 159 -202z" />
    <glyph glyph-name="i" unicode="i" horiz-adv-x="232" 
d="M57 616v118h119v-118h-119zM57 0v515h119v-515h-119z" />
    <glyph glyph-name="j" unicode="j" horiz-adv-x="230" 
d="M59 616v118h118v-118h-118zM-74 -184l13 86q30 -8 54 -8q36 0 51 22.5t15 75.5v523h118v-514q0 -104 -42.5 -150t-125.5 -46q-43 0 -83 11z" />
    <glyph glyph-name="k" unicode="k" horiz-adv-x="501" 
d="M175 734v-416l170 197h136l-164 -184l180 -331h-135l-125 245l-62 -69v-176h-118v734h118z" />
    <glyph glyph-name="l" unicode="l" horiz-adv-x="231" 
d="M175 734v-734h-119v734h119z" />
    <glyph glyph-name="m" unicode="m" horiz-adv-x="804" 
d="M307 527q108 0 141 -97q48 97 148 97q156 0 156 -203v-324h-118v316q0 63 -18.5 90.5t-57.5 27.5q-46 0 -70.5 -36t-24.5 -103v-295h-118v316q0 65 -18 91.5t-56 26.5q-96 0 -96 -141v-293h-118v515h108l4 -75h2q42 87 136 87z" />
    <glyph glyph-name="n" unicode="n" horiz-adv-x="531" 
d="M479 327v-327h-118v316q0 62 -19.5 90t-62.5 28q-104 0 -104 -149v-285h-118v515h108l5 -74h1q43 86 146 86q162 0 162 -200z" />
    <glyph glyph-name="o" unicode="o" horiz-adv-x="522" 
d="M257 -12q-222 0 -222 269q0 130 64.5 200t169.5 70q106 0 162 -66.5t56 -193.5q0 -138 -59.5 -208.5t-170.5 -70.5zM262 76q103 0 103 185q0 86 -23 130.5t-78 44.5q-107 0 -107 -178q0 -90 23.5 -136t81.5 -46z" />
    <glyph glyph-name="p" unicode="p" horiz-adv-x="529" 
d="M174 -183h-117v698h103l8 -64h2q48 76 146 76q79 0 128.5 -61.5t49.5 -193.5q0 -149 -54 -216.5t-142 -67.5q-42 0 -74.5 16.5t-48.5 43.5h-1v-231zM171 262q0 -189 98 -189q54 0 78.5 48.5t24.5 149.5q0 92 -24 131.5t-70 39.5q-107 0 -107 -180z" />
    <glyph glyph-name="q" unicode="q" horiz-adv-x="526" 
d="M377 515h94v-698h-116v245h-1q-17 -31 -51 -52.5t-84 -21.5q-184 0 -184 258q0 146 54.5 213.5t145.5 67.5q82 0 124 -64h3zM358 259q0 96 -23 140t-74 44t-77 -45.5t-26 -150.5q0 -95 23.5 -135t71.5 -40q105 0 105 187z" />
    <glyph glyph-name="r" unicode="r" horiz-adv-x="437" 
d="M419 334l-113 -7q6 58 -4.5 82t-40.5 24q-86 0 -86 -168v-265h-118v515h108l5 -73h2q38 85 132 85q67 0 98 -48t17 -145z" />
    <glyph glyph-name="s" unicode="s" horiz-adv-x="453" 
d="M417 375l-103 -18q-9 85 -83 85q-76 0 -76 -57q0 -30 27.5 -47t67.5 -26t79.5 -22.5t67 -47.5t27.5 -89q0 -78 -58 -121.5t-144 -43.5q-91 0 -139.5 38.5t-58.5 121.5l107 14q7 -46 26.5 -68t66.5 -22q83 0 83 65q0 32 -27.5 50t-66.5 27t-78 21.5t-66.5 45.5t-27.5 87
q0 76 54.5 117.5t137.5 41.5q164 0 184 -152z" />
    <glyph glyph-name="t" unicode="t" horiz-adv-x="343" 
d="M16 430v85h61v105l118 36v-141h113v-85h-113v-256q0 -53 14.5 -74.5t52.5 -21.5q26 0 58 10l11 -85q-41 -15 -98 -15q-80 0 -118 41t-38 130v271h-61z" />
    <glyph glyph-name="u" unicode="u" horiz-adv-x="523" 
d="M52 193v322h118v-314q0 -62 18.5 -91t59.5 -29q101 0 101 158v276h118v-515h-106l-7 75h-1q-46 -87 -143 -87q-158 0 -158 205z" />
    <glyph glyph-name="v" unicode="v" horiz-adv-x="464" 
d="M300 0h-135l-159 515h126l101 -396h2l101 396h122z" />
    <glyph glyph-name="w" unicode="w" horiz-adv-x="761" 
d="M285 0h-133l-143 515h122l90 -396h2l94 396h135l96 -396h2l87 396h116l-139 -515h-135l-96 394h-1z" />
    <glyph glyph-name="x" unicode="x" horiz-adv-x="496" 
d="M135 0h-124l164 265l-158 250h130l99 -169h2l99 169h124l-156 -250l171 -265h-131l-112 178h-1z" />
    <glyph glyph-name="y" unicode="y" horiz-adv-x="460" 
d="M456 515l-169 -518q-36 -109 -74.5 -150.5t-113.5 -41.5q-52 0 -82 13l13 81q29 -8 51 -8q34 0 53 22t36 78l4 14l-167 510h127l98 -381h2l100 381h122z" />
    <glyph glyph-name="z" unicode="z" horiz-adv-x="432" 
d="M37 419v96h367v-89l-234 -329h237v-97h-380v89l236 330h-226z" />
    <glyph glyph-name="braceleft" unicode="{" horiz-adv-x="358" 
d="M120 450v175q0 86 42.5 119t143.5 38l9 -47q-46 -13 -61 -30t-15 -52v-191q0 -57 -22 -91.5t-81 -47.5v-2q57 -8 80 -39.5t23 -87.5v-194q0 -35 14.5 -51.5t62.5 -30.5l-9 -47q-90 3 -138.5 33.5t-48.5 107.5v182q0 38 -20 64t-67 27v65q87 12 87 100z" />
    <glyph glyph-name="bar" unicode="|" horiz-adv-x="249" 
d="M69 760h111v-1000h-111v1000z" />
    <glyph glyph-name="braceright" unicode="}" horiz-adv-x="358" 
d="M238 625v-175q0 -88 87 -100v-65q-47 -1 -67 -27t-20 -64v-182q0 -77 -48.5 -107.5t-138.5 -33.5l-9 47q48 14 62.5 30.5t14.5 51.5v194q0 56 23 87.5t80 39.5v2q-59 13 -81 47.5t-22 91.5v191q0 35 -15 52t-61 30l9 47q101 -5 143.5 -38t42.5 -119z" />
    <glyph glyph-name="asciitilde" unicode="~" 
d="M115 215l-61 26q12 55 42 83.5t73 28.5q33 0 90 -23q50 -21 71 -21q36 0 55 49l62 -24q-14 -50 -42.5 -80t-67.5 -30q-32 0 -95 24q-52 20 -69 20q-39 0 -58 -53z" />
    <glyph glyph-name="uni00A0" unicode="&#xa0;" horiz-adv-x="177" 
 />
    <glyph glyph-name="exclamdown" unicode="&#xa1;" horiz-adv-x="294" 
d="M92 319h111l11 -530h-133zM85 393v130h125v-130h-125z" />
    <glyph glyph-name="cent" unicode="&#xa2;" horiz-adv-x="490" 
d="M226 695h81v-78q78 -10 116 -61t41 -130l-105 -8q-6 81 -52 103v-343q41 17 51 95l104 -6q-16 -160 -155 -183v-84h-81v83q-98 11 -142.5 80t-44.5 181q0 116 48.5 186.5t138.5 84.5v80zM162 347q0 -141 64 -168v341q-64 -31 -64 -173z" />
    <glyph glyph-name="sterling" unicode="&#xa3;" horiz-adv-x="506" 
d="M29 322v89h72q-40 70 -40 139q0 88 58 142.5t162 54.5q108 0 161.5 -66.5t36.5 -186.5l-114 8q10 82 -12.5 115.5t-74.5 33.5q-44 0 -70.5 -25.5t-26.5 -73.5q0 -27 9 -54.5t16.5 -42.5t25.5 -44h174v-89h-133q5 -22 5 -41q0 -78 -101 -179h295v-102h-414v101
q104 94 104 171q0 25 -11 50h-122z" />
    <glyph glyph-name="yen" unicode="&#xa5;" horiz-adv-x="534" 
d="M438 328h-108v-67h108v-89h-108v-172h-122v172h-118v89h118v67h-118v88h80l-170 318h136l133 -291l138 291h127l-169 -318h73v-88z" />
    <glyph glyph-name="brokenbar" unicode="&#xa6;" horiz-adv-x="249" 
d="M69 -240v445h111v-445h-111zM69 760h111v-445h-111v445z" />
    <glyph glyph-name="section" unicode="&#xa7;" horiz-adv-x="611" 
d="M54 258q0 85 100 149q-62 51 -62 135q0 89 67 140.5t168 51.5q95 0 155 -47t67 -140l-116 -14q-11 108 -111 108q-49 0 -76 -22.5t-27 -59.5q0 -43 35 -68.5t84.5 -39t99 -29.5t84.5 -52t35 -94q0 -93 -97 -156q61 -49 61 -134q0 -88 -65.5 -138.5t-165.5 -50.5
q-98 0 -160 46.5t-71 139.5l118 15q11 -107 115 -107q49 0 76 22.5t27 62.5q0 36 -25.5 59.5t-63 33t-82 23t-82 29t-63 50.5t-25.5 87zM175 283q0 -23 11 -39.5t34 -27.5t45 -18t56.5 -16.5t55.5 -17.5q59 35 59 87q0 27 -20.5 45.5t-45.5 26.5t-69.5 20t-69.5 22
q-56 -35 -56 -82z" />
    <glyph glyph-name="dieresis" unicode="&#xa8;" 
d="M283 608v106h95v-106h-95zM122 608v106h95v-106h-95z" />
    <glyph glyph-name="copyright" unicode="&#xa9;" horiz-adv-x="768" 
d="M722 338q0 -161 -94 -259.5t-245 -98.5q-163 0 -250.5 95.5t-87.5 246.5q0 164 97 261t244 97q156 0 246 -93t90 -249zM385 52q122 0 191 75t69 206t-70.5 203t-188.5 72q-117 0 -189 -75.5t-72 -208.5q0 -128 68.5 -200t191.5 -72zM476 283l63 -12q-11 -74 -53.5 -106.5
t-99.5 -32.5q-85 0 -126.5 54t-41.5 144t46 146t126 56q61 0 100.5 -34t45.5 -106l-67 -10q-5 45 -23.5 66t-55.5 21q-44 0 -70 -34t-26 -106q0 -60 22.5 -97t70.5 -37q40 0 60 22.5t29 65.5z" />
    <glyph glyph-name="ordfeminine" unicode="&#xaa;" horiz-adv-x="356" 
d="M335 477l2 -57q-99 -22 -117 36q-28 -45 -97 -45q-52 0 -75.5 25.5t-23.5 64.5q0 24 10 41.5t24.5 28.5t41.5 18.5t50.5 11t60.5 7.5v14q0 59 -47 59q-27 0 -35 -13t-4 -39l-86 -7q-10 57 22 91t110 34q77 0 105 -36.5t28 -103.5v-110q0 -14 6.5 -19t24.5 -1zM211 525v33
q-53 -3 -72.5 -15t-19.5 -35q0 -37 39 -37q23 0 38 15t15 39z" />
    <glyph glyph-name="guillemotleft" unicode="&#xab;" horiz-adv-x="422" 
d="M388 78l-69 -31l-123 204l123 197l69 -29l-89 -165zM226 78l-69 -31l-124 204l123 197l69 -29l-89 -165z" />
    <glyph glyph-name="logicalnot" unicode="&#xac;" horiz-adv-x="545" 
d="M455 168h-87v127h-278v82h365v-209z" />
    <glyph glyph-name="uni00AD" unicode="&#xad;" horiz-adv-x="316" 
d="M287 232h-258v94h258v-94z" />
    <glyph glyph-name="registered" unicode="&#xae;" horiz-adv-x="434" 
d="M404 548q0 -86 -52 -139.5t-135 -53.5q-90 0 -138.5 52t-48.5 134q0 87 54 140t133 53q86 0 136.5 -51t50.5 -135zM354 545q0 69 -37.5 106t-99.5 37q-60 0 -97.5 -39t-37.5 -107q0 -66 35.5 -103.5t99.5 -37.5q65 0 101 38.5t36 105.5zM256 536l47 -84h-44l-40 75h-25
v-75h-40v191h73q63 0 63 -54q0 -39 -34 -53zM194 558h13q21 0 31 5.5t10 22.5q0 15 -8.5 20t-26.5 5h-19v-53z" />
    <glyph glyph-name="macron" unicode="&#xaf;" 
d="M117 615v80h266v-80h-266z" />
    <glyph glyph-name="degree" unicode="&#xb0;" horiz-adv-x="300" 
d="M148 527q-51 0 -79.5 29t-28.5 80t32.5 80.5t80.5 29.5q49 0 78 -28t29 -78q0 -53 -30.5 -83t-81.5 -30zM150 578q48 0 48 59q0 58 -47 58q-21 0 -35.5 -13.5t-14.5 -44.5q0 -59 49 -59z" />
    <glyph glyph-name="plusminus" unicode="&#xb1;" horiz-adv-x="545" 
d="M455 295h-142v-142h-82v142h-141v82h141v141h82v-141h142v-82zM455 0h-365v82h365v-82z" />
    <glyph glyph-name="twosuperior" unicode="&#xb2;" horiz-adv-x="366" 
d="M150 466h168v-76h-272q-4 40 4 84q6 29 27 58.5t47 53t51 47.5t42 50.5t17 52.5q0 23 -13.5 35.5t-36.5 12.5q-60 0 -45 -89l-89 -6q-14 71 20 117.5t118 46.5q67 0 104 -31t37 -87q0 -37 -18 -70.5t-43.5 -58t-51.5 -47t-45 -46.5t-21 -47z" />
    <glyph glyph-name="threesuperior" unicode="&#xb3;" horiz-adv-x="366" 
d="M132 587l-7 69q54 2 77.5 18.5t23.5 55.5q0 54 -51 54q-31 0 -42 -19.5t-4 -67.5l-88 -6q-14 71 19 116.5t118 45.5q67 0 105.5 -29t38.5 -84q0 -85 -90 -111q99 -21 99 -112q0 -66 -39.5 -100t-110.5 -34q-80 0 -114 35.5t-37 106.5l92 5q3 -42 16 -60t45 -18
q24 0 38.5 17t14.5 48q0 41 -25 56.5t-79 13.5z" />
    <glyph glyph-name="acute" unicode="&#xb4;" 
d="M295 762l72 -65l-144 -132l-47 42z" />
    <glyph glyph-name="mu" unicode="&#xb5;" horiz-adv-x="591" 
d="M89 -176v691h115v-313q0 -63 13.5 -91.5t57.5 -28.5q58 0 85 46t27 120v267h115v-515h-95l-17 86q-21 -41 -61 -64t-87 -23q-29 0 -48 10l-3 -3l17 -182h-119z" />
    <glyph glyph-name="paragraph" unicode="&#xb6;" horiz-adv-x="620" 
d="M287 -141v371h-6q-121 0 -178 71t-57 182q0 112 60.5 181.5t194.5 69.5h82v-875h-96zM448 -140v874h96v-874h-96z" />
    <glyph glyph-name="periodcentered" unicode="&#xb7;" horiz-adv-x="241" 
d="M58 266v130h125v-130h-125z" />
    <glyph glyph-name="cedilla" unicode="&#xb8;" 
d="M200 -85l35 85h55l-23 -48q11 5 28 5q36 0 57.5 -23t21.5 -61q0 -43 -29.5 -69t-78.5 -26q-66 0 -107 51l41 38q25 -29 55 -29q36 0 36 37q0 35 -32 35q-13 0 -27 -9z" />
    <glyph glyph-name="onesuperior" unicode="&#xb9;" horiz-adv-x="265" 
d="M34 708l-19 71q68 23 122 66h65v-455h-95v352q-30 -19 -73 -34z" />
    <glyph glyph-name="ordmasculine" unicode="&#xba;" horiz-adv-x="373" 
d="M183 411q-152 0 -152 167q0 82 44 125.5t117 43.5q150 0 150 -163q0 -173 -159 -173zM187 479q31 0 44 24.5t13 76.5q0 51 -13 74.5t-42 23.5q-60 0 -60 -100q0 -52 12.5 -76t45.5 -23z" />
    <glyph glyph-name="guillemotright" unicode="&#xbb;" horiz-adv-x="422" 
d="M103 47l-69 31l89 176l-89 165l69 29l123 -197zM265 47l-69 31l90 176l-89 165l69 29l123 -197z" />
    <glyph glyph-name="onequarter" unicode="&#xbc;" horiz-adv-x="885" 
d="M550 154h104v201h-2zM747 455v-301h51v-73h-51v-81h-93v81h-187v57l166 317h114zM55 597l-19 71q68 23 122 66h65v-455h-95v352q-30 -19 -73 -34zM156 25l407 728l78 -41l-408 -730z" />
    <glyph glyph-name="onehalf" unicode="&#xbd;" horiz-adv-x="885" 
d="M798 76h-168q2 23 21 47t45 46.5t51.5 47t43.5 58t18 70.5q0 56 -37 87t-104 31q-84 0 -118 -46.5t-20 -117.5l89 6q-15 89 45 89q23 0 36.5 -12.5t13.5 -35.5q0 -26 -17 -52.5t-42 -50.5t-51 -47.5t-47 -53t-27 -58.5q-8 -44 -4 -84h272v76zM64 597l-19 71q68 23 122 66
h65v-455h-95v352q-30 -19 -73 -34zM158 25l407 728l78 -41l-408 -730z" />
    <glyph glyph-name="threequarters" unicode="&#xbe;" horiz-adv-x="885" 
d="M591 154h104v201h-2zM788 455v-301h51v-73h-51v-81h-93v81h-187v57l166 317h114zM131 544l7 -69q54 2 79 -13.5t25 -56.5q0 -31 -14.5 -48t-38.5 -17q-32 0 -45 18t-16 60l-92 -5q3 -71 37 -106.5t114 -35.5q71 0 110.5 34t39.5 100q0 91 -99 112q90 26 90 111
q0 55 -38.5 84t-105.5 29q-85 0 -118 -45.5t-19 -116.5l88 6q-7 48 4 67.5t42 19.5q51 0 51 -54q0 -39 -23.5 -55.5t-77.5 -18.5zM212 25l407 728l78 -41l-408 -730z" />
    <glyph glyph-name="questiondown" unicode="&#xbf;" horiz-adv-x="491" 
d="M164 1q0 81 39.5 119t139.5 41l-6 166h-111l-6 -90q-180 -37 -180 -237q0 -106 54.5 -165t156.5 -59q202 0 207 218l-114 8q-3 -66 -23.5 -97.5t-65.5 -31.5q-91 0 -91 128zM346 523v-130h-125v130h125z" />
    <glyph glyph-name="Agrave" unicode="&#xc0;" horiz-adv-x="620" 
d="M229 734h158l228 -734h-128l-56 186h-247l-54 -186h-125zM404 285l-97 332h-2l-96 -332h195zM188 845l50 82l161 -110l-34 -55z" />
    <glyph glyph-name="Aacute" unicode="&#xc1;" horiz-adv-x="620" 
d="M229 734h158l228 -734h-128l-56 186h-247l-54 -186h-125zM404 285l-97 332h-2l-96 -332h195zM376 928l48 -83l-178 -83l-32 55z" />
    <glyph glyph-name="Acircumflex" unicode="&#xc2;" horiz-adv-x="620" 
d="M229 734h158l228 -734h-128l-56 186h-247l-54 -186h-125zM404 285l-97 332h-2l-96 -332h195zM275 918h63l119 -114l-35 -43l-117 74l-115 -74l-34 43z" />
    <glyph glyph-name="Atilde" unicode="&#xc3;" horiz-adv-x="620" 
d="M229 734h158l228 -734h-128l-56 186h-247l-54 -186h-125zM404 285l-97 332h-2l-96 -332h195zM216 780l-53 8q20 105 86 105q25 0 63.5 -14.5t53.5 -14.5q24 0 35 40l51 -8q-20 -108 -85 -108q-28 0 -67 14t-51 14q-25 0 -33 -36z" />
    <glyph glyph-name="Adieresis" unicode="&#xc4;" horiz-adv-x="620" 
d="M229 734h158l228 -734h-128l-56 186h-247l-54 -186h-125zM404 285l-97 332h-2l-96 -332h195zM339 781v106h94v-106h-94zM177 781v106h94v-106h-94z" />
    <glyph glyph-name="Aring" unicode="&#xc5;" horiz-adv-x="620" 
d="M229 734h158l228 -734h-128l-56 186h-247l-54 -186h-125zM404 285l-97 332h-2l-96 -332h195zM303 761q-99 0 -99 91q0 41 29 66t74 25q49 0 75 -23.5t26 -64.5q0 -44 -27 -69t-78 -25zM305 808q33 0 33 45q0 43 -32 43q-36 0 -36 -44t35 -44z" />
    <glyph glyph-name="AE" unicode="&#xc6;" horiz-adv-x="860" 
d="M774 416v-99h-236v-215h285v-102h-409v317h-185l-99 -317h-125l242 734h557v-102h-266v-216h236zM324 632l-69 -217h159v217h-90z" />
    <glyph glyph-name="Ccedilla" unicode="&#xc7;" horiz-adv-x="599" 
d="M249 -85l30 75q-234 18 -234 369q0 192 76.5 290t211.5 98q112 0 171.5 -71t57.5 -196l-120 -10q0 95 -30.5 135t-87.5 40q-148 0 -148 -283q0 -142 34.5 -208t106.5 -66q112 0 122 162l119 -9q-18 -240 -225 -252l-17 -37q11 5 28 5q36 0 57.5 -23t21.5 -61
q0 -43 -29.5 -69t-78.5 -26q-66 0 -107 51l41 38q25 -29 55 -29q36 0 36 37q0 35 -32 35q-13 0 -27 -9z" />
    <glyph glyph-name="Egrave" unicode="&#xc8;" horiz-adv-x="522" 
d="M153 845l50 82l161 -110l-34 -55zM436 426v-99h-236v-225h285v-102h-409v734h390v-102h-266v-206h236z" />
    <glyph glyph-name="Eacute" unicode="&#xc9;" horiz-adv-x="522" 
d="M342 928l48 -83l-178 -83l-32 55zM436 426v-99h-236v-225h285v-102h-409v734h390v-102h-266v-206h236z" />
    <glyph glyph-name="Ecircumflex" unicode="&#xca;" horiz-adv-x="522" 
d="M436 426v-99h-236v-225h285v-102h-409v734h390v-102h-266v-206h236zM237 918h63l119 -114l-35 -43l-117 74l-115 -74l-34 43z" />
    <glyph glyph-name="Edieresis" unicode="&#xcb;" horiz-adv-x="522" 
d="M306 781v106h94v-106h-94zM144 781v106h94v-106h-94zM436 426v-99h-236v-225h285v-102h-409v734h390v-102h-266v-206h236z" />
    <glyph glyph-name="Igrave" unicode="&#xcc;" horiz-adv-x="358" 
d="M240 647v-560h72v-87h-266v87h71v560h-71v87h266v-87h-72zM59 845l50 82l161 -110l-34 -55z" />
    <glyph glyph-name="Iacute" unicode="&#xcd;" horiz-adv-x="358" 
d="M240 647v-560h72v-87h-266v87h71v560h-71v87h266v-87h-72zM246 928l48 -83l-178 -83l-32 55z" />
    <glyph glyph-name="Icircumflex" unicode="&#xce;" horiz-adv-x="358" 
d="M240 647v-560h72v-87h-266v87h71v560h-71v87h266v-87h-72zM147 918h63l119 -114l-35 -43l-117 74l-115 -74l-34 43z" />
    <glyph glyph-name="Idieresis" unicode="&#xcf;" horiz-adv-x="358" 
d="M240 647v-560h72v-87h-266v87h71v560h-71v87h266v-87h-72zM213 781v106h94v-106h-94zM51 781v106h94v-106h-94z" />
    <glyph glyph-name="Eth" unicode="&#xd0;" horiz-adv-x="631" 
d="M229 0h-143v320h-65v96h65v318h145q195 0 275 -85t80 -271q0 -200 -80.5 -289t-276.5 -89zM210 101h38q113 0 161.5 60.5t48.5 210.5q0 141 -46.5 201t-161.5 60h-40v-217h157v-96h-157v-219z" />
    <glyph glyph-name="Ntilde" unicode="&#xd1;" horiz-adv-x="668" 
d="M244 780l-53 8q20 105 86 105q25 0 63.5 -14.5t53.5 -14.5q24 0 35 40l51 -8q-20 -108 -85 -108q-28 0 -67 14t-51 14q-25 0 -33 -36zM592 0h-141l-259 549h-1v-549h-115v734h151l250 -547h1v547h114v-734z" />
    <glyph glyph-name="Ograve" unicode="&#xd2;" horiz-adv-x="641" 
d="M209 845l50 82l161 -110l-34 -55zM317 -12q-140 0 -206 95.5t-66 281.5q0 184 75 283t213 99q136 0 199.5 -93.5t63.5 -275.5q0 -390 -279 -390zM322 88q78 0 112 69t34 216q0 140 -32.5 205.5t-107.5 65.5q-154 0 -154 -275q0 -143 34.5 -212t113.5 -69z" />
    <glyph glyph-name="Oacute" unicode="&#xd3;" horiz-adv-x="641" 
d="M399 928l48 -83l-178 -83l-32 55zM317 -12q-140 0 -206 95.5t-66 281.5q0 184 75 283t213 99q136 0 199.5 -93.5t63.5 -275.5q0 -390 -279 -390zM322 88q78 0 112 69t34 216q0 140 -32.5 205.5t-107.5 65.5q-154 0 -154 -275q0 -143 34.5 -212t113.5 -69z" />
    <glyph glyph-name="Ocircumflex" unicode="&#xd4;" horiz-adv-x="641" 
d="M317 -12q-140 0 -206 95.5t-66 281.5q0 184 75 283t213 99q136 0 199.5 -93.5t63.5 -275.5q0 -390 -279 -390zM322 88q78 0 112 69t34 216q0 140 -32.5 205.5t-107.5 65.5q-154 0 -154 -275q0 -143 34.5 -212t113.5 -69zM298 918h63l119 -114l-35 -43l-117 74l-115 -74
l-34 43z" />
    <glyph glyph-name="Otilde" unicode="&#xd5;" horiz-adv-x="641" 
d="M237 780l-53 8q20 105 86 105q25 0 63.5 -14.5t53.5 -14.5q24 0 35 40l51 -8q-20 -108 -85 -108q-28 0 -67 14t-51 14q-25 0 -33 -36zM317 -12q-140 0 -206 95.5t-66 281.5q0 184 75 283t213 99q136 0 199.5 -93.5t63.5 -275.5q0 -390 -279 -390zM322 88q78 0 112 69
t34 216q0 140 -32.5 205.5t-107.5 65.5q-154 0 -154 -275q0 -143 34.5 -212t113.5 -69z" />
    <glyph glyph-name="Odieresis" unicode="&#xd6;" horiz-adv-x="641" 
d="M363 781v106h94v-106h-94zM201 781v106h94v-106h-94zM317 -12q-140 0 -206 95.5t-66 281.5q0 184 75 283t213 99q136 0 199.5 -93.5t63.5 -275.5q0 -390 -279 -390zM322 88q78 0 112 69t34 216q0 140 -32.5 205.5t-107.5 65.5q-154 0 -154 -275q0 -143 34.5 -212
t113.5 -69z" />
    <glyph glyph-name="multiply" unicode="&#xd7;" 
d="M407 436l-101 -101l101 -100l-58 -57l-100 100l-100 -100l-57 58l100 100l-100 100l57 57l100 -100l100 100z" />
    <glyph glyph-name="Oslash" unicode="&#xd8;" horiz-adv-x="637" 
d="M315 -12q-55 0 -101 16l-31 -70l-84 36l36 83q-90 91 -90 312q0 184 74.5 283t211.5 99q56 0 102 -17l30 68l85 -34l-38 -87q83 -90 83 -299q0 -390 -278 -390zM174 369q0 -117 21 -180l193 439q-25 16 -62 16q-152 0 -152 -275zM320 88q77 0 110.5 69t33.5 216
q0 103 -17 162l-190 -432q27 -15 63 -15z" />
    <glyph glyph-name="Ugrave" unicode="&#xd9;" horiz-adv-x="650" 
d="M203 845l50 82l161 -110l-34 -55zM458 283v451h123v-479q0 -267 -260 -267q-136 0 -193.5 68.5t-57.5 200.5v477h122v-450q0 -103 29.5 -149t104.5 -46q74 0 103 45t29 149z" />
    <glyph glyph-name="Uacute" unicode="&#xda;" horiz-adv-x="650" 
d="M393 928l48 -83l-178 -83l-32 55zM458 283v451h123v-479q0 -267 -260 -267q-136 0 -193.5 68.5t-57.5 200.5v477h122v-450q0 -103 29.5 -149t104.5 -46q74 0 103 45t29 149z" />
    <glyph glyph-name="Ucircumflex" unicode="&#xdb;" horiz-adv-x="650" 
d="M458 283v451h123v-479q0 -267 -260 -267q-136 0 -193.5 68.5t-57.5 200.5v477h122v-450q0 -103 29.5 -149t104.5 -46q74 0 103 45t29 149zM292 918h63l119 -114l-35 -43l-117 74l-115 -74l-34 43z" />
    <glyph glyph-name="Udieresis" unicode="&#xdc;" horiz-adv-x="650" 
d="M357 781v106h94v-106h-94zM195 781v106h94v-106h-94zM458 283v451h123v-479q0 -267 -260 -267q-136 0 -193.5 68.5t-57.5 200.5v477h122v-450q0 -103 29.5 -149t104.5 -46q74 0 103 45t29 149z" />
    <glyph glyph-name="Yacute" unicode="&#xdd;" horiz-adv-x="559" 
d="M342 281v-281h-122v277l-225 457h137l150 -334l154 334h128zM351 928l48 -83l-178 -83l-32 55z" />
    <glyph glyph-name="Thorn" unicode="&#xde;" horiz-adv-x="572" 
d="M200 143v-143h-124v734h124v-127h106q235 0 235 -216q0 -248 -265 -248h-76zM200 240h64q77 0 113.5 34t36.5 110q0 62 -30 92.5t-97 30.5h-87v-267z" />
    <glyph glyph-name="germandbls" unicode="&#xdf;" horiz-adv-x="635" 
d="M179 485v-485h-118v496q0 127 66.5 189t186.5 62q106 0 159.5 -48t53.5 -132q0 -62 -25 -126q-21 3 -38 3q-72 0 -72 -54q0 -41 62 -64q79 -29 114.5 -63t35.5 -103q0 -82 -50 -127t-133 -45q-176 0 -193 161l106 15q6 -46 25.5 -69t60.5 -23q35 0 53.5 19t18.5 54
q0 19 -6.5 32.5t-21.5 24t-27 16t-35 14.5q-30 12 -45 19.5t-37 24t-31.5 41t-9.5 57.5q0 60 38.5 94t92.5 40q7 18 7 54q0 94 -104 94q-73 0 -103.5 -42t-30.5 -129z" />
    <glyph glyph-name="agrave" unicode="&#xe0;" horiz-adv-x="506" 
d="M481 75l3 -73q-36 -9 -62 -9q-75 0 -91 70q-42 -75 -147 -75q-76 0 -113.5 41t-37.5 102q0 39 15 67.5t37 45t62.5 28t76 16.5t93.5 10v29q0 63 -20.5 89t-61.5 26q-43 0 -59.5 -18.5t-16.5 -52.5q0 -19 3 -38l-106 -9q-5 27 -5 47q0 72 47.5 114t144.5 42
q59 0 98.5 -17.5t59 -52.5t26.5 -73t7 -92v-182q0 -38 27 -38q8 0 20 3zM317 171v53q-97 -5 -131 -24.5t-34 -61.5q0 -31 19 -50t53 -19q40 0 66.5 29t26.5 73zM125 697l74 64l119 -154l-47 -41z" />
    <glyph glyph-name="aacute" unicode="&#xe1;" horiz-adv-x="506" 
d="M481 75l3 -73q-36 -9 -62 -9q-75 0 -91 70q-42 -75 -147 -75q-76 0 -113.5 41t-37.5 102q0 39 15 67.5t37 45t62.5 28t76 16.5t93.5 10v29q0 63 -20.5 89t-61.5 26q-43 0 -59.5 -18.5t-16.5 -52.5q0 -19 3 -38l-106 -9q-5 27 -5 47q0 72 47.5 114t144.5 42
q59 0 98.5 -17.5t59 -52.5t26.5 -73t7 -92v-182q0 -38 27 -38q8 0 20 3zM317 171v53q-97 -5 -131 -24.5t-34 -61.5q0 -31 19 -50t53 -19q40 0 66.5 29t26.5 73zM286 762l72 -65l-144 -132l-47 42z" />
    <glyph glyph-name="acircumflex" unicode="&#xe2;" horiz-adv-x="506" 
d="M481 75l3 -73q-36 -9 -62 -9q-75 0 -91 70q-42 -75 -147 -75q-76 0 -113.5 41t-37.5 102q0 39 15 67.5t37 45t62.5 28t76 16.5t93.5 10v29q0 63 -20.5 89t-61.5 26q-43 0 -59.5 -18.5t-16.5 -52.5q0 -19 3 -38l-106 -9q-5 27 -5 47q0 72 47.5 114t144.5 42
q59 0 98.5 -17.5t59 -52.5t26.5 -73t7 -92v-182q0 -38 27 -38q8 0 20 3zM317 171v53q-97 -5 -131 -24.5t-34 -61.5q0 -31 19 -50t53 -19q40 0 66.5 29t26.5 73zM210 746h63l114 -142l-44 -38l-103 93l-100 -93l-44 38z" />
    <glyph glyph-name="atilde" unicode="&#xe3;" horiz-adv-x="506" 
d="M481 75l3 -73q-36 -9 -62 -9q-75 0 -91 70q-42 -75 -147 -75q-76 0 -113.5 41t-37.5 102q0 39 15 67.5t37 45t62.5 28t76 16.5t93.5 10v29q0 63 -20.5 89t-61.5 26q-43 0 -59.5 -18.5t-16.5 -52.5q0 -19 3 -38l-106 -9q-5 27 -5 47q0 72 47.5 114t144.5 42
q59 0 98.5 -17.5t59 -52.5t26.5 -73t7 -92v-182q0 -38 27 -38q8 0 20 3zM317 171v53q-97 -5 -131 -24.5t-34 -61.5q0 -31 19 -50t53 -19q40 0 66.5 29t26.5 73zM149 605l-52 8q20 105 85 105q25 0 63.5 -14.5t52.5 -14.5q25 0 35 39l52 -8q-21 -107 -85 -107q-28 0 -67 14
t-51 14q-24 0 -33 -36z" />
    <glyph glyph-name="adieresis" unicode="&#xe4;" horiz-adv-x="506" 
d="M481 75l3 -73q-36 -9 -62 -9q-75 0 -91 70q-42 -75 -147 -75q-76 0 -113.5 41t-37.5 102q0 39 15 67.5t37 45t62.5 28t76 16.5t93.5 10v29q0 63 -20.5 89t-61.5 26q-43 0 -59.5 -18.5t-16.5 -52.5q0 -19 3 -38l-106 -9q-5 27 -5 47q0 72 47.5 114t144.5 42
q59 0 98.5 -17.5t59 -52.5t26.5 -73t7 -92v-182q0 -38 27 -38q8 0 20 3zM317 171v53q-97 -5 -131 -24.5t-34 -61.5q0 -31 19 -50t53 -19q40 0 66.5 29t26.5 73zM274 608v106h95v-106h-95zM113 608v106h95v-106h-95z" />
    <glyph glyph-name="aring" unicode="&#xe5;" horiz-adv-x="506" 
d="M481 75l3 -73q-36 -9 -62 -9q-75 0 -91 70q-42 -75 -147 -75q-76 0 -113.5 41t-37.5 102q0 39 15 67.5t37 45t62.5 28t76 16.5t93.5 10v29q0 63 -20.5 89t-61.5 26q-43 0 -59.5 -18.5t-16.5 -52.5q0 -19 3 -38l-106 -9q-5 27 -5 47q0 72 47.5 114t144.5 42
q59 0 98.5 -17.5t59 -52.5t26.5 -73t7 -92v-182q0 -38 27 -38q8 0 20 3zM317 171v53q-97 -5 -131 -24.5t-34 -61.5q0 -31 19 -50t53 -19q40 0 66.5 29t26.5 73zM239 575q-99 0 -99 91q0 41 29 66t74 25q49 0 75 -23.5t26 -64.5q0 -44 -27 -69t-78 -25zM241 622q33 0 33 45
q0 43 -32 43q-36 0 -36 -44t35 -44z" />
    <glyph glyph-name="ae" unicode="&#xe6;" horiz-adv-x="776" 
d="M635 179l101 -9q-6 -53 -26 -90.5t-50 -56.5t-60.5 -27t-65.5 -8q-126 0 -171 100q-51 -100 -179 -100q-76 0 -113.5 41t-37.5 102q0 39 15 67.5t37 45t62.5 28t76.5 16.5t93 10v29q0 63 -20.5 89t-61.5 26q-54 0 -67 -27.5t-6 -81.5l-106 -9q-17 91 29 147t157 56
q99 0 143 -74q57 74 159 74q109 0 158.5 -76t35.5 -216h-305q1 -75 25 -116t83 -41q83 0 94 101zM434 310h190q6 132 -89 132q-50 0 -74.5 -36t-26.5 -96zM317 171v53q-97 -6 -130 -25t-33 -60q0 -34 19 -52t52 -18q41 0 66.5 30t25.5 72z" />
    <glyph glyph-name="ccedilla" unicode="&#xe7;" horiz-adv-x="485" 
d="M191 -85l31 75q-98 11 -142.5 80.5t-44.5 180.5q0 131 61 203.5t172 72.5q96 0 143 -53.5t50 -140.5l-106 -8q-7 112 -92 112q-106 0 -106 -183q0 -89 25 -132.5t80 -43.5q41 0 62.5 24t28.5 79l105 -7q-16 -176 -183 -185l-17 -37q11 5 28 5q36 0 57.5 -23t21.5 -61
q0 -43 -29.5 -69t-78.5 -26q-66 0 -107 51l41 38q25 -29 55 -29q36 0 36 37q0 35 -32 35q-13 0 -27 -9z" />
    <glyph glyph-name="egrave" unicode="&#xe8;" horiz-adv-x="499" 
d="M358 176l102 -9q-22 -179 -201 -179q-224 0 -224 265q0 129 60.5 201.5t172.5 72.5q97 0 146.5 -62t49.5 -176q0 -28 -3 -58h-304q0 -153 106 -153q82 0 95 98zM157 310h191q6 133 -89 133q-97 0 -102 -133zM146 697l74 64l119 -154l-47 -41z" />
    <glyph glyph-name="eacute" unicode="&#xe9;" horiz-adv-x="499" 
d="M307 762l72 -65l-144 -132l-47 42zM358 176l102 -9q-22 -179 -201 -179q-224 0 -224 265q0 129 60.5 201.5t172.5 72.5q97 0 146.5 -62t49.5 -176q0 -28 -3 -58h-304q0 -153 106 -153q82 0 95 98zM157 310h191q6 133 -89 133q-97 0 -102 -133z" />
    <glyph glyph-name="ecircumflex" unicode="&#xea;" horiz-adv-x="499" 
d="M231 746h63l114 -142l-44 -38l-103 93l-100 -93l-44 38zM358 176l102 -9q-22 -179 -201 -179q-224 0 -224 265q0 129 60.5 201.5t172.5 72.5q97 0 146.5 -62t49.5 -176q0 -28 -3 -58h-304q0 -153 106 -153q82 0 95 98zM157 310h191q6 133 -89 133q-97 0 -102 -133z" />
    <glyph glyph-name="edieresis" unicode="&#xeb;" horiz-adv-x="499" 
d="M295 608v106h95v-106h-95zM134 608v106h95v-106h-95zM358 176l102 -9q-22 -179 -201 -179q-224 0 -224 265q0 129 60.5 201.5t172.5 72.5q97 0 146.5 -62t49.5 -176q0 -28 -3 -58h-304q0 -153 106 -153q82 0 95 98zM157 310h191q6 133 -89 133q-97 0 -102 -133z" />
    <glyph glyph-name="igrave" unicode="&#xec;" horiz-adv-x="232" 
d="M57 0v515h119v-515h-119zM0 697l74 64l119 -154l-47 -41z" />
    <glyph glyph-name="iacute" unicode="&#xed;" horiz-adv-x="232" 
d="M161 762l72 -65l-144 -132l-47 42zM57 0v515h119v-515h-119z" />
    <glyph glyph-name="icircumflex" unicode="&#xee;" horiz-adv-x="232" 
d="M85 746h63l114 -142l-44 -38l-103 93l-100 -93l-44 38zM57 0v515h119v-515h-119z" />
    <glyph glyph-name="idieresis" unicode="&#xef;" horiz-adv-x="232" 
d="M149 608v106h95v-106h-95zM-12 608v106h95v-106h-95zM57 0v515h119v-515h-119z" />
    <glyph glyph-name="eth" unicode="&#xf0;" horiz-adv-x="522" 
d="M442 676l-79 -33q124 -149 124 -365q0 -145 -59 -217.5t-171 -72.5q-222 0 -222 269q0 118 56 193t149 75q58 0 101 -39l2 3q-23 56 -70 113l-107 -46l-24 63l79 33h1q2 1 3 1q-30 28 -68 59l103 26q28 -22 55 -45l102 45zM262 76q103 0 103 185q0 175 -101 175
q-107 0 -107 -178q0 -90 23.5 -136t81.5 -46z" />
    <glyph glyph-name="ntilde" unicode="&#xf1;" horiz-adv-x="531" 
d="M479 327v-327h-118v316q0 62 -19.5 90t-62.5 28q-104 0 -104 -149v-285h-118v515h108l5 -74h1q43 86 146 86q162 0 162 -200zM180 605l-52 8q20 105 85 105q25 0 63.5 -14.5t52.5 -14.5q25 0 35 39l52 -8q-21 -107 -85 -107q-28 0 -67 14t-51 14q-24 0 -33 -36z" />
    <glyph glyph-name="ograve" unicode="&#xf2;" horiz-adv-x="522" 
d="M257 -12q-222 0 -222 269q0 130 64.5 200t169.5 70q106 0 162 -66.5t56 -193.5q0 -138 -59.5 -208.5t-170.5 -70.5zM262 76q103 0 103 185q0 86 -23 130.5t-78 44.5q-107 0 -107 -178q0 -90 23.5 -136t81.5 -46zM148 697l74 64l119 -154l-47 -41z" />
    <glyph glyph-name="oacute" unicode="&#xf3;" horiz-adv-x="522" 
d="M309 762l72 -65l-144 -132l-47 42zM257 -12q-222 0 -222 269q0 130 64.5 200t169.5 70q106 0 162 -66.5t56 -193.5q0 -138 -59.5 -208.5t-170.5 -70.5zM262 76q103 0 103 185q0 86 -23 130.5t-78 44.5q-107 0 -107 -178q0 -90 23.5 -136t81.5 -46z" />
    <glyph glyph-name="ocircumflex" unicode="&#xf4;" horiz-adv-x="522" 
d="M233 746h63l114 -142l-44 -38l-103 93l-100 -93l-44 38zM257 -12q-222 0 -222 269q0 130 64.5 200t169.5 70q106 0 162 -66.5t56 -193.5q0 -138 -59.5 -208.5t-170.5 -70.5zM262 76q103 0 103 185q0 86 -23 130.5t-78 44.5q-107 0 -107 -178q0 -90 23.5 -136t81.5 -46z
" />
    <glyph glyph-name="otilde" unicode="&#xf5;" horiz-adv-x="522" 
d="M257 -12q-222 0 -222 269q0 130 64.5 200t169.5 70q106 0 162 -66.5t56 -193.5q0 -138 -59.5 -208.5t-170.5 -70.5zM262 76q103 0 103 185q0 86 -23 130.5t-78 44.5q-107 0 -107 -178q0 -90 23.5 -136t81.5 -46zM172 605l-52 8q20 105 85 105q25 0 63.5 -14.5t52.5 -14.5
q25 0 35 39l52 -8q-21 -107 -85 -107q-28 0 -67 14t-51 14q-24 0 -33 -36z" />
    <glyph glyph-name="odieresis" unicode="&#xf6;" horiz-adv-x="522" 
d="M297 608v106h95v-106h-95zM136 608v106h95v-106h-95zM257 -12q-222 0 -222 269q0 130 64.5 200t169.5 70q106 0 162 -66.5t56 -193.5q0 -138 -59.5 -208.5t-170.5 -70.5zM262 76q103 0 103 185q0 86 -23 130.5t-78 44.5q-107 0 -107 -178q0 -90 23.5 -136t81.5 -46z" />
    <glyph glyph-name="divide" unicode="&#xf7;" horiz-adv-x="545" 
d="M455 295h-365v82h365v-82zM217 414v116h109v-116h-109zM217 138v116h109v-116h-109z" />
    <glyph glyph-name="oslash" unicode="&#xf8;" horiz-adv-x="522" 
d="M257 -12q-46 0 -87 13l-38 -71l-73 39l41 76q-65 66 -65 212q0 130 64.5 200t169.5 70q43 0 84 -13l35 65l73 -37l-39 -72q65 -67 65 -203q0 -138 -59.5 -208.5t-170.5 -70.5zM262 76q103 0 103 185q0 49 -8 87l-141 -262q19 -10 46 -10zM157 258q0 -58 8 -93l141 262
q-18 9 -42 9q-107 0 -107 -178z" />
    <glyph glyph-name="ugrave" unicode="&#xf9;" horiz-adv-x="523" 
d="M52 193v322h118v-314q0 -62 18.5 -91t59.5 -29q101 0 101 158v276h118v-515h-106l-7 75h-1q-46 -87 -143 -87q-158 0 -158 205zM143 697l74 64l119 -154l-47 -41z" />
    <glyph glyph-name="uacute" unicode="&#xfa;" horiz-adv-x="523" 
d="M304 762l72 -65l-144 -132l-47 42zM52 193v322h118v-314q0 -62 18.5 -91t59.5 -29q101 0 101 158v276h118v-515h-106l-7 75h-1q-46 -87 -143 -87q-158 0 -158 205z" />
    <glyph glyph-name="ucircumflex" unicode="&#xfb;" horiz-adv-x="523" 
d="M228 746h63l114 -142l-44 -38l-103 93l-100 -93l-44 38zM52 193v322h118v-314q0 -62 18.5 -91t59.5 -29q101 0 101 158v276h118v-515h-106l-7 75h-1q-46 -87 -143 -87q-158 0 -158 205z" />
    <glyph glyph-name="udieresis" unicode="&#xfc;" horiz-adv-x="523" 
d="M292 608v106h95v-106h-95zM131 608v106h95v-106h-95zM52 193v322h118v-314q0 -62 18.5 -91t59.5 -29q101 0 101 158v276h118v-515h-106l-7 75h-1q-46 -87 -143 -87q-158 0 -158 205z" />
    <glyph glyph-name="yacute" unicode="&#xfd;" horiz-adv-x="460" 
d="M456 515l-169 -518q-36 -109 -74.5 -150.5t-113.5 -41.5q-52 0 -82 13l13 81q29 -8 51 -8q34 0 53 22t36 78l4 14l-167 510h127l98 -381h2l100 381h122zM278 762l72 -65l-144 -132l-47 42z" />
    <glyph glyph-name="thorn" unicode="&#xfe;" horiz-adv-x="529" 
d="M317 527q78 0 127.5 -61t49.5 -194q0 -149 -55 -216.5t-147 -67.5q-76 0 -117 58h-1v-229h-117v917h118v-284h1q46 77 141 77zM276 443q-104 0 -104 -184q0 -98 24 -142t73 -44q53 0 78 48.5t25 149.5q0 93 -24 132.5t-72 39.5z" />
    <glyph glyph-name="ydieresis" unicode="&#xff;" horiz-adv-x="460" 
d="M456 515l-169 -518q-36 -109 -74.5 -150.5t-113.5 -41.5q-52 0 -82 13l13 81q29 -8 51 -8q34 0 53 22t36 78l4 14l-167 510h127l98 -381h2l100 381h122zM266 608v106h95v-106h-95zM105 608v106h95v-106h-95z" />
    <glyph glyph-name="Amacron" unicode="&#x100;" horiz-adv-x="620" 
d="M229 734h158l228 -734h-128l-56 186h-247l-54 -186h-125zM404 285l-97 332h-2l-96 -332h195zM173 795v81h266v-81h-266z" />
    <glyph glyph-name="amacron" unicode="&#x101;" horiz-adv-x="506" 
d="M481 75l3 -73q-36 -9 -62 -9q-75 0 -91 70q-42 -75 -147 -75q-76 0 -113.5 41t-37.5 102q0 39 15 67.5t37 45t62.5 28t76 16.5t93.5 10v29q0 63 -20.5 89t-61.5 26q-43 0 -59.5 -18.5t-16.5 -52.5q0 -19 3 -38l-106 -9q-5 27 -5 47q0 72 47.5 114t144.5 42
q59 0 98.5 -17.5t59 -52.5t26.5 -73t7 -92v-182q0 -38 27 -38q8 0 20 3zM317 171v53q-97 -5 -131 -24.5t-34 -61.5q0 -31 19 -50t53 -19q40 0 66.5 29t26.5 73zM108 615v80h266v-80h-266z" />
    <glyph glyph-name="Abreve" unicode="&#x102;" horiz-adv-x="620" 
d="M229 734h158l228 -734h-128l-56 186h-247l-54 -186h-125zM404 285l-97 332h-2l-96 -332h195zM163 902l62 12q19 -69 82 -69q33 0 53 15.5t35 53.5l58 -12q-25 -135 -149 -135q-122 0 -141 135z" />
    <glyph glyph-name="abreve" unicode="&#x103;" horiz-adv-x="506" 
d="M481 75l3 -73q-36 -9 -62 -9q-75 0 -91 70q-42 -75 -147 -75q-76 0 -113.5 41t-37.5 102q0 39 15 67.5t37 45t62.5 28t76 16.5t93.5 10v29q0 63 -20.5 89t-61.5 26q-43 0 -59.5 -18.5t-16.5 -52.5q0 -19 3 -38l-106 -9q-5 27 -5 47q0 72 47.5 114t144.5 42
q59 0 98.5 -17.5t59 -52.5t26.5 -73t7 -92v-182q0 -38 27 -38q8 0 20 3zM317 171v53q-97 -5 -131 -24.5t-34 -61.5q0 -31 19 -50t53 -19q40 0 66.5 29t26.5 73zM101 729l62 7q12 -80 79 -80q65 0 84 80l59 -7q-20 -150 -146 -150q-124 0 -138 150z" />
    <glyph glyph-name="Aogonek" unicode="&#x104;" horiz-adv-x="620" 
d="M229 734h158l228 -734h-33q-50 -57 -50 -96q0 -26 25 -26q24 0 44 32l45 -31q-43 -74 -124 -74q-37 0 -58.5 17t-21.5 50q0 59 76 128h-31l-56 186h-247l-54 -186h-125zM404 285l-97 332h-2l-96 -332h195z" />
    <glyph glyph-name="aogonek" unicode="&#x105;" horiz-adv-x="506" 
d="M481 75l3 -73q-41 -1 -70 -32.5t-29 -65.5q0 -26 25 -26q24 0 44 32l45 -31q-43 -74 -124 -74q-37 0 -58.5 17t-21.5 50q0 61 79 130q-32 15 -43 61q-42 -75 -147 -75q-76 0 -113.5 41t-37.5 102q0 39 15 67.5t37 45t62.5 28t76 16.5t93.5 10v29q0 63 -20.5 89t-61.5 26
q-54 0 -66.5 -27.5t-6.5 -81.5l-106 -9q-17 91 28.5 147t158.5 56q59 0 98.5 -17.5t59 -52.5t26.5 -73t7 -92v-182q0 -25 10 -33t37 -2zM317 171v53q-97 -5 -131 -24.5t-34 -61.5q0 -31 19 -50t53 -19q40 0 66.5 29t26.5 73z" />
    <glyph glyph-name="Cacute" unicode="&#x106;" horiz-adv-x="599" 
d="M317 88q112 0 122 162l119 -9q-10 -131 -72.5 -192t-176.5 -61q-264 0 -264 371q0 192 76.5 290t211.5 98q112 0 171.5 -71t57.5 -196l-120 -10q0 95 -30.5 135t-87.5 40q-148 0 -148 -283q0 -142 34.5 -208t106.5 -66zM398 928l48 -83l-178 -83l-32 55z" />
    <glyph glyph-name="cacute" unicode="&#x107;" horiz-adv-x="485" 
d="M304 762l72 -65l-144 -132l-47 42zM461 333l-106 -8q-7 112 -92 112q-106 0 -106 -183q0 -89 25 -132.5t80 -43.5q41 0 62.5 24t28.5 79l105 -7q-17 -186 -201 -186q-116 0 -169 71t-53 192q0 131 61 203.5t172 72.5q96 0 143 -53.5t50 -140.5z" />
    <glyph glyph-name="Ccircumflex" unicode="&#x108;" horiz-adv-x="599" 
d="M317 88q112 0 122 162l119 -9q-10 -131 -72.5 -192t-176.5 -61q-264 0 -264 371q0 192 76.5 290t211.5 98q112 0 171.5 -71t57.5 -196l-120 -10q0 95 -30.5 135t-87.5 40q-148 0 -148 -283q0 -142 34.5 -208t106.5 -66zM297 918h63l119 -114l-35 -43l-117 74l-115 -74
l-34 43z" />
    <glyph glyph-name="ccircumflex" unicode="&#x109;" horiz-adv-x="485" 
d="M229 746h63l114 -142l-44 -38l-103 93l-100 -93l-44 38zM461 333l-106 -8q-7 112 -92 112q-106 0 -106 -183q0 -89 25 -132.5t80 -43.5q41 0 62.5 24t28.5 79l105 -7q-17 -186 -201 -186q-116 0 -169 71t-53 192q0 131 61 203.5t172 72.5q96 0 143 -53.5t50 -140.5z" />
    <glyph glyph-name="Cdotaccent" unicode="&#x10a;" horiz-adv-x="599" 
d="M268 785v118h120v-118h-120zM317 88q112 0 122 162l119 -9q-10 -131 -72.5 -192t-176.5 -61q-264 0 -264 371q0 192 76.5 290t211.5 98q112 0 171.5 -71t57.5 -196l-120 -10q0 95 -30.5 135t-87.5 40q-148 0 -148 -283q0 -142 34.5 -208t106.5 -66z" />
    <glyph glyph-name="cdotaccent" unicode="&#x10b;" horiz-adv-x="485" 
d="M461 333l-106 -8q-7 112 -92 112q-106 0 -106 -183q0 -89 25 -132.5t80 -43.5q41 0 62.5 24t28.5 79l105 -7q-17 -186 -201 -186q-116 0 -169 71t-53 192q0 131 61 203.5t172 72.5q96 0 143 -53.5t50 -140.5zM201 616v118h118v-118h-118z" />
    <glyph glyph-name="Ccaron" unicode="&#x10c;" horiz-adv-x="599" 
d="M317 88q112 0 122 162l119 -9q-10 -131 -72.5 -192t-176.5 -61q-264 0 -264 371q0 192 76.5 290t211.5 98q112 0 171.5 -71t57.5 -196l-120 -10q0 95 -30.5 135t-87.5 40q-148 0 -148 -283q0 -142 34.5 -208t106.5 -66zM358 774h-63l-118 111l35 44l115 -73l115 73
l34 -44z" />
    <glyph glyph-name="ccaron" unicode="&#x10d;" horiz-adv-x="485" 
d="M291 576h-62l-114 143l44 38l102 -96l101 96l44 -38zM461 333l-106 -8q-7 112 -92 112q-106 0 -106 -183q0 -89 25 -132.5t80 -43.5q41 0 62.5 24t28.5 79l105 -7q-17 -186 -201 -186q-116 0 -169 71t-53 192q0 131 61 203.5t172 72.5q96 0 143 -53.5t50 -140.5z" />
    <glyph glyph-name="Dcaron" unicode="&#x10e;" horiz-adv-x="620" 
d="M317 767h-63l-118 111l35 44l115 -73l115 73l34 -44zM219 0h-143v734h145q195 0 275 -85t80 -271q0 -200 -80.5 -289t-276.5 -89zM200 101h38q113 0 161.5 60.5t48.5 210.5q0 141 -46.5 201t-161.5 60h-40v-532z" />
    <glyph glyph-name="dcaron" unicode="&#x10f;" horiz-adv-x="588" 
d="M517 734h94l-33 -193l-58 3zM355 734h117v-734h-101l-11 64h-1q-18 -35 -54 -55.5t-82 -20.5q-187 0 -187 258q0 138 51.5 209.5t145.5 71.5q82 0 121 -61h1v268zM359 258q0 99 -25 142t-73 43q-52 0 -77 -46.5t-25 -149.5q0 -96 23.5 -136t72.5 -40q104 0 104 187z" />
    <glyph glyph-name="Dcroat" unicode="&#x110;" horiz-adv-x="631" 
d="M229 0h-143v320h-65v96h65v318h145q195 0 275 -85t80 -271q0 -200 -80.5 -289t-276.5 -89zM210 101h38q113 0 161.5 60.5t48.5 210.5q0 141 -46.5 201t-161.5 60h-40v-217h157v-96h-157v-219z" />
    <glyph glyph-name="dcroat" unicode="&#x111;" horiz-adv-x="527" 
d="M355 734h117v-67h54v-81h-54v-586h-101l-11 64h-1q-18 -35 -54 -55.5t-82 -20.5q-187 0 -187 258q0 138 51.5 209.5t145.5 71.5q82 0 121 -61h1v120h-170v81h170v67zM359 258q0 99 -25 142t-73 43q-52 0 -77 -46.5t-25 -149.5q0 -96 23.5 -136t72.5 -40q104 0 104 187z
" />
    <glyph glyph-name="Emacron" unicode="&#x112;" horiz-adv-x="522" 
d="M137 795v81h266v-81h-266zM436 426v-99h-236v-225h285v-102h-409v734h390v-102h-266v-206h236z" />
    <glyph glyph-name="emacron" unicode="&#x113;" horiz-adv-x="499" 
d="M358 176l102 -9q-22 -179 -201 -179q-224 0 -224 265q0 129 60.5 201.5t172.5 72.5q97 0 146.5 -62t49.5 -176q0 -28 -3 -58h-304q0 -153 106 -153q82 0 95 98zM157 310h191q6 133 -89 133q-97 0 -102 -133zM125 615v80h266v-80h-266z" />
    <glyph glyph-name="Ebreve" unicode="&#x114;" horiz-adv-x="522" 
d="M128 902l62 12q19 -69 82 -69q33 0 53 15.5t35 53.5l58 -12q-25 -135 -149 -135q-122 0 -141 135zM436 426v-99h-236v-225h285v-102h-409v734h390v-102h-266v-206h236z" />
    <glyph glyph-name="ebreve" unicode="&#x115;" horiz-adv-x="499" 
d="M358 176l102 -9q-22 -179 -201 -179q-224 0 -224 265q0 129 60.5 201.5t172.5 72.5q97 0 146.5 -62t49.5 -176q0 -28 -3 -58h-304q0 -153 106 -153q82 0 95 98zM157 310h191q6 133 -89 133q-97 0 -102 -133zM117 729l62 7q12 -80 79 -80q65 0 84 80l59 -7
q-20 -150 -146 -150q-124 0 -138 150z" />
    <glyph glyph-name="Edotaccent" unicode="&#x116;" horiz-adv-x="522" 
d="M214 785v118h120v-118h-120zM436 426v-99h-236v-225h285v-102h-409v734h390v-102h-266v-206h236z" />
    <glyph glyph-name="edotaccent" unicode="&#x117;" horiz-adv-x="499" 
d="M358 176l102 -9q-22 -179 -201 -179q-224 0 -224 265q0 129 60.5 201.5t172.5 72.5q97 0 146.5 -62t49.5 -176q0 -28 -3 -58h-304q0 -153 106 -153q82 0 95 98zM157 310h191q6 133 -89 133q-97 0 -102 -133zM201 616v118h118v-118h-118z" />
    <glyph glyph-name="Eogonek" unicode="&#x118;" horiz-adv-x="522" 
d="M436 426v-99h-236v-225h285v-102h-48q-65 -51 -65 -96q0 -26 25 -26q23 0 43 32l45 -31q-42 -74 -123 -74q-37 0 -59 17t-22 50q0 63 86 128h-291v734h390v-102h-266v-206h236z" />
    <glyph glyph-name="eogonek" unicode="&#x119;" horiz-adv-x="499" 
d="M358 176l102 -9q-10 -81 -70 -141q-73 -73 -73 -122q0 -26 25 -26q23 0 43 32l45 -31q-42 -74 -123 -74q-37 0 -59 17t-22 50q0 56 69 118q-24 -2 -36 -2q-224 0 -224 265q0 129 60.5 201.5t172.5 72.5q109 0 158 -76t35 -216h-304q0 -157 106 -157q82 0 95 98zM157 310
h191q6 133 -89 133q-97 0 -102 -133z" />
    <glyph glyph-name="Ecaron" unicode="&#x11a;" horiz-adv-x="522" 
d="M300 767h-63l-118 111l35 44l115 -73l115 73l34 -44zM436 426v-99h-236v-225h285v-102h-409v734h390v-102h-266v-206h236z" />
    <glyph glyph-name="ecaron" unicode="&#x11b;" horiz-adv-x="499" 
d="M290 576h-62l-114 143l44 38l102 -96l101 96l44 -38zM358 176l102 -9q-22 -179 -201 -179q-224 0 -224 265q0 129 60.5 201.5t172.5 72.5q97 0 146.5 -62t49.5 -176q0 -28 -3 -58h-304q0 -153 106 -153q82 0 95 98zM157 310h191q6 133 -89 133q-97 0 -102 -133z" />
    <glyph glyph-name="Gcircumflex" unicode="&#x11c;" horiz-adv-x="632" 
d="M325 270v95h243v-377h-84l-13 89q-56 -89 -168 -89q-127 0 -192.5 92t-65.5 271q0 199 76.5 297.5t212.5 98.5q112 0 170 -69.5t57 -197.5l-120 -10q-1 175 -116 175q-148 0 -148 -285q0 -141 36 -206.5t109 -65.5q58 0 94 42.5t39 119.5v20h-130zM297 918h63l119 -114
l-35 -43l-117 74l-115 -74l-34 43z" />
    <glyph glyph-name="gcircumflex" unicode="&#x11d;" horiz-adv-x="527" 
d="M230 746h63l114 -142l-44 -38l-103 93l-100 -93l-44 38zM376 515h96v-477q0 -114 -57 -173.5t-168 -59.5q-168 0 -194 141l107 20q8 -35 27 -53.5t62 -18.5q54 0 80 31.5t26 102.5v53h-1q-39 -73 -135 -73q-83 0 -133 57t-50 187q0 138 53 206.5t144 68.5q89 0 126 -65h3
zM358 260q0 97 -24 140t-72 43q-103 0 -103 -189q0 -92 23.5 -127t71.5 -35q104 0 104 168z" />
    <glyph glyph-name="Gbreve" unicode="&#x11e;" horiz-adv-x="632" 
d="M185 909l62 12q19 -69 82 -69q33 0 53 15.5t35 53.5l58 -12q-25 -135 -149 -135q-122 0 -141 135zM325 270v95h243v-377h-84l-13 89q-56 -89 -168 -89q-127 0 -192.5 92t-65.5 271q0 199 76.5 297.5t212.5 98.5q112 0 170 -69.5t57 -197.5l-120 -10q-1 175 -116 175
q-148 0 -148 -285q0 -141 36 -206.5t109 -65.5q58 0 94 42.5t39 119.5v20h-130z" />
    <glyph glyph-name="gbreve" unicode="&#x11f;" horiz-adv-x="527" 
d="M376 515h96v-477q0 -114 -57 -173.5t-168 -59.5q-168 0 -194 141l107 20q8 -35 27 -53.5t62 -18.5q54 0 80 31.5t26 102.5v53h-1q-39 -73 -135 -73q-83 0 -133 57t-50 187q0 138 53 206.5t144 68.5q89 0 126 -65h3zM358 260q0 97 -24 140t-72 43q-103 0 -103 -189
q0 -92 23.5 -127t71.5 -35q104 0 104 168zM120 729l62 7q12 -80 79 -80q65 0 84 80l59 -7q-20 -150 -146 -150q-124 0 -138 150z" />
    <glyph glyph-name="Gdotaccent" unicode="&#x120;" horiz-adv-x="632" 
d="M267 785v118h120v-118h-120zM325 270v95h243v-377h-84l-13 89q-56 -89 -168 -89q-127 0 -192.5 92t-65.5 271q0 199 76.5 297.5t212.5 98.5q112 0 170 -69.5t57 -197.5l-120 -10q-1 175 -116 175q-148 0 -148 -285q0 -141 36 -206.5t109 -65.5q58 0 94 42.5t39 119.5v20
h-130z" />
    <glyph glyph-name="gdotaccent" unicode="&#x121;" horiz-adv-x="527" 
d="M376 515h96v-477q0 -114 -57 -173.5t-168 -59.5q-168 0 -194 141l107 20q8 -35 27 -53.5t62 -18.5q54 0 80 31.5t26 102.5v53h-1q-39 -73 -135 -73q-83 0 -133 57t-50 187q0 138 53 206.5t144 68.5q89 0 126 -65h3zM358 260q0 97 -24 140t-72 43q-103 0 -103 -189
q0 -92 23.5 -127t71.5 -35q104 0 104 168zM201 616v118h118v-118h-118z" />
    <glyph glyph-name="Gcommaaccent" unicode="&#x122;" horiz-adv-x="632" 
d="M325 270v95h243v-377h-84l-13 89q-56 -89 -168 -89q-127 0 -192.5 92t-65.5 271q0 199 76.5 297.5t212.5 98.5q112 0 170 -69.5t57 -197.5l-120 -10q-1 175 -116 175q-148 0 -148 -285q0 -141 36 -206.5t109 -65.5q58 0 94 42.5t39 119.5v20h-130zM264 -152v107h105v-89
l-45 -118l-50 12l22 88h-32z" />
    <glyph glyph-name="gcommaaccent" unicode="&#x123;" horiz-adv-x="527" 
d="M314 685v-107h-105v90l45 117l50 -12l-22 -88h32zM376 515h96v-477q0 -114 -57 -173.5t-168 -59.5q-168 0 -194 141l107 20q8 -35 27 -53.5t62 -18.5q54 0 80 31.5t26 102.5v53h-1q-39 -73 -135 -73q-83 0 -133 57t-50 187q0 138 53 206.5t144 68.5q89 0 126 -65h3z
M358 260q0 97 -24 140t-72 43q-103 0 -103 -189q0 -92 23.5 -127t71.5 -35q104 0 104 168z" />
    <glyph glyph-name="Hcircumflex" unicode="&#x124;" horiz-adv-x="657" 
d="M581 734v-734h-125v314h-256v-314h-124v734h124v-316h256v316h125zM296 918h63l119 -114l-35 -43l-117 74l-115 -74l-34 43z" />
    <glyph glyph-name="hcircumflex" unicode="&#x125;" horiz-adv-x="531" 
d="M479 325v-325h-119v316q0 56 -17 87t-63 31q-105 0 -105 -148v-286h-118v734h118v-286h1q48 79 144 79q159 0 159 -202zM91 912h63l119 -114l-35 -43l-117 74l-115 -74l-34 43z" />
    <glyph glyph-name="Hbar" unicode="&#x126;" horiz-adv-x="677" 
d="M591 734v-115h59v-92h-59v-527h-125v314h-256v-314h-124v527h-59v92h59v115h124v-115h256v115h125zM210 418h256v109h-256v-109z" />
    <glyph glyph-name="hbar" unicode="&#x127;" horiz-adv-x="531" 
d="M479 325v-325h-119v316q0 56 -17 87t-63 31q-105 0 -105 -148v-286h-118v586h-56v81h56v67h118v-67h174v-81h-174v-138h1q48 79 144 79q159 0 159 -202z" />
    <glyph glyph-name="Itilde" unicode="&#x128;" horiz-adv-x="358" 
d="M240 647v-560h72v-87h-266v87h71v560h-71v87h266v-87h-72zM87 780l-53 8q20 105 86 105q25 0 63.5 -14.5t53.5 -14.5q24 0 35 40l51 -8q-20 -108 -85 -108q-28 0 -67 14t-51 14q-25 0 -33 -36z" />
    <glyph glyph-name="itilde" unicode="&#x129;" horiz-adv-x="232" 
d="M57 0v515h119v-515h-119zM24 605l-52 8q20 105 85 105q25 0 63.5 -14.5t52.5 -14.5q25 0 35 39l52 -8q-21 -107 -85 -107q-28 0 -67 14t-51 14q-24 0 -33 -36z" />
    <glyph glyph-name="Imacron" unicode="&#x12a;" horiz-adv-x="358" 
d="M240 647v-560h72v-87h-266v87h71v560h-71v87h266v-87h-72zM46 795v81h266v-81h-266z" />
    <glyph glyph-name="imacron" unicode="&#x12b;" horiz-adv-x="232" 
d="M57 0v515h119v-515h-119zM-17 615v80h266v-80h-266z" />
    <glyph glyph-name="Ibreve" unicode="&#x12c;" horiz-adv-x="358" 
d="M240 647v-560h72v-87h-266v87h71v560h-71v87h266v-87h-72zM36 902l62 12q19 -69 82 -69q33 0 53 15.5t35 53.5l58 -12q-25 -135 -149 -135q-122 0 -141 135z" />
    <glyph glyph-name="ibreve" unicode="&#x12d;" horiz-adv-x="232" 
d="M57 0v515h119v-515h-119zM-24 729l62 7q12 -80 79 -80q65 0 84 80l59 -7q-20 -150 -146 -150q-124 0 -138 150z" />
    <glyph glyph-name="Iogonek" unicode="&#x12e;" horiz-adv-x="358" 
d="M240 647v-560h72v-87h-96q-50 -57 -50 -96q0 -26 25 -26q24 0 44 32l45 -31q-43 -74 -124 -74q-37 0 -58.5 17t-21.5 50q0 59 76 128h-106v87h71v560h-71v87h266v-87h-72z" />
    <glyph glyph-name="iogonek" unicode="&#x12f;" horiz-adv-x="232" 
d="M57 0v515h119v-515h-24q-50 -57 -50 -96q0 -26 25 -26q24 0 44 32l45 -31q-43 -74 -124 -74q-37 0 -58.5 17t-21.5 50q0 59 76 128h-31zM57 616v118h119v-118h-119z" />
    <glyph glyph-name="Idotaccent" unicode="&#x130;" horiz-adv-x="358" 
d="M240 647v-560h72v-87h-266v87h71v560h-71v87h266v-87h-72zM119 785v118h120v-118h-120z" />
    <glyph glyph-name="dotlessi" unicode="&#x131;" horiz-adv-x="232" 
d="M57 0v515h119v-515h-119z" />
    <glyph glyph-name="IJ" unicode="&#x132;" horiz-adv-x="867" 
d="M240 647v-560h72v-87h-266v87h71v560h-71v87h266v-87h-72zM379 217l117 10q1 -25 3 -41t8 -36t15 -31.5t26 -19.5t40 -8q46 0 66.5 28.5t20.5 96.5v518h123v-527q0 -107 -54 -163t-159 -56q-204 0 -206 229z" />
    <glyph glyph-name="Jcircumflex" unicode="&#x134;" horiz-adv-x="508" 
d="M20 217l117 10q1 -25 3 -41t8 -36t15 -31.5t26 -19.5t40 -8q46 0 66.5 28.5t20.5 96.5v518h123v-527q0 -107 -54 -163t-159 -56q-204 0 -206 229zM346 918h63l119 -114l-35 -43l-117 74l-115 -74l-34 43z" />
    <glyph glyph-name="jcircumflex" unicode="&#x135;" horiz-adv-x="230" 
d="M-74 -184l13 86q30 -8 54 -8q36 0 51 22.5t15 75.5v523h118v-514q0 -104 -42.5 -150t-125.5 -46q-43 0 -83 11zM87 746h63l114 -142l-44 -38l-103 93l-100 -93l-44 38z" />
    <glyph glyph-name="Kcommaaccent" unicode="&#x136;" horiz-adv-x="610" 
d="M265 -152v107h105v-89l-45 -118l-50 12l22 88h-32zM200 734v-329l258 329h137l-243 -303l254 -431h-141l-196 327l-69 -86v-241h-124v734h124z" />
    <glyph glyph-name="kcommaaccent" unicode="&#x137;" horiz-adv-x="501" 
d="M202 -152v107h105v-89l-45 -118l-50 12l22 88h-32zM175 734v-416l170 197h136l-164 -184l180 -331h-135l-125 245l-62 -69v-176h-118v734h118z" />
    <glyph glyph-name="kgreenlandic" unicode="&#x138;" horiz-adv-x="501" 
d="M175 515v-192l170 192h136l-163 -183l179 -332h-135l-125 241l-62 -69v-172h-118v515h118z" />
    <glyph glyph-name="Lacute" unicode="&#x139;" horiz-adv-x="487" 
d="M211 928l48 -83l-178 -83l-32 55zM200 734v-632h256v-102h-380v734h124z" />
    <glyph glyph-name="lacute" unicode="&#x13a;" horiz-adv-x="231" 
d="M188 928l48 -83l-178 -83l-32 55zM175 734v-734h-119v734h119z" />
    <glyph glyph-name="Lcommaaccent" unicode="&#x13b;" horiz-adv-x="487" 
d="M213 -152v107h105v-89l-45 -118l-50 12l22 88h-32zM200 734v-632h256v-102h-380v734h124z" />
    <glyph glyph-name="lcommaaccent" unicode="&#x13c;" horiz-adv-x="231" 
d="M64 -152v107h105v-89l-45 -118l-50 12l22 88h-32zM175 734v-734h-119v734h119z" />
    <glyph glyph-name="Lcaron" unicode="&#x13d;" horiz-adv-x="487" 
d="M281 734h94l-33 -193l-58 3zM200 734v-632h256v-102h-380v734h124z" />
    <glyph glyph-name="lcaron" unicode="&#x13e;" horiz-adv-x="289" 
d="M219 734h94l-33 -193l-58 3zM175 734v-734h-119v734h119z" />
    <glyph glyph-name="Ldot" unicode="&#x13f;" horiz-adv-x="487" 
d="M307 359v117h118v-117h-118zM200 734v-632h256v-102h-380v734h124z" />
    <glyph glyph-name="ldot" unicode="&#x140;" horiz-adv-x="326" 
d="M175 734v-734h-119v734h119zM221 328v117h116v-117h-116z" />
    <glyph glyph-name="Lslash" unicode="&#x141;" horiz-adv-x="487" 
d="M200 734v-287l137 65l23 -87l-160 -77v-246h256v-102h-380v296l-73 -34l-21 87l94 46v339h124z" />
    <glyph glyph-name="lslash" unicode="&#x142;" horiz-adv-x="305" 
d="M214 734v-272l66 32l24 -87l-90 -43v-364h-119v317l-65 -31l-22 86l87 43v319h119z" />
    <glyph glyph-name="Nacute" unicode="&#x143;" horiz-adv-x="668" 
d="M420 928l48 -83l-178 -83l-32 55zM592 0h-141l-259 549h-1v-549h-115v734h151l250 -547h1v547h114v-734z" />
    <glyph glyph-name="nacute" unicode="&#x144;" horiz-adv-x="531" 
d="M318 762l72 -65l-144 -132l-47 42zM479 327v-327h-118v316q0 62 -19.5 90t-62.5 28q-104 0 -104 -149v-285h-118v515h108l5 -74h1q43 86 146 86q162 0 162 -200z" />
    <glyph glyph-name="Ncommaaccent" unicode="&#x145;" horiz-adv-x="668" 
d="M291 -152v107h105v-89l-45 -118l-50 12l22 88h-32zM592 0h-141l-259 549h-1v-549h-115v734h151l250 -547h1v547h114v-734z" />
    <glyph glyph-name="ncommaaccent" unicode="&#x146;" horiz-adv-x="531" 
d="M215 -152v107h105v-89l-45 -118l-50 12l22 88h-32zM479 327v-327h-118v316q0 62 -19.5 90t-62.5 28q-104 0 -104 -149v-285h-118v515h108l5 -74h1q43 86 146 86q162 0 162 -200z" />
    <glyph glyph-name="Ncaron" unicode="&#x147;" horiz-adv-x="668" 
d="M378 767h-63l-118 111l35 44l115 -73l115 73l34 -44zM592 0h-141l-259 549h-1v-549h-115v734h151l250 -547h1v547h114v-734z" />
    <glyph glyph-name="ncaron" unicode="&#x148;" horiz-adv-x="531" 
d="M303 576h-62l-114 143l44 38l102 -96l101 96l44 -38zM479 327v-327h-118v316q0 62 -19.5 90t-62.5 28q-104 0 -104 -149v-285h-118v515h108l5 -74h1q43 86 146 86q162 0 162 -200z" />
    <glyph glyph-name="napostrophe" unicode="&#x149;" horiz-adv-x="591" 
d="M93 719v-107h-33l23 -88l-50 -12l-45 118v89h105zM539 327v-327h-118v316q0 62 -19.5 90t-62.5 28q-104 0 -104 -149v-285h-118v515h108l5 -74h1q43 86 146 86q162 0 162 -200z" />
    <glyph glyph-name="Eng" unicode="&#x14a;" horiz-adv-x="668" 
d="M262 -171l19 92q51 -18 93 -18q52 0 73.5 26.5t21.5 85.5v1l-277 533v-549h-116v734h143l258 -502v502h115v-730q0 -96 -50.5 -147.5t-150.5 -51.5q-79 0 -129 24z" />
    <glyph glyph-name="eng" unicode="&#x14b;" horiz-adv-x="531" 
d="M229 -184l12 86q30 -8 54 -8q36 0 51 22.5t15 75.5v324q0 62 -19.5 90t-62.5 28q-104 0 -104 -149v-285h-118v515h108l5 -74h1q43 86 146 86q162 0 162 -200v-326q0 -104 -42.5 -150t-125.5 -46q-45 0 -82 11z" />
    <glyph glyph-name="Omacron" unicode="&#x14c;" horiz-adv-x="641" 
d="M196 795v81h266v-81h-266zM317 -12q-140 0 -206 95.5t-66 281.5q0 184 75 283t213 99q136 0 199.5 -93.5t63.5 -275.5q0 -390 -279 -390zM322 88q78 0 112 69t34 216q0 140 -32.5 205.5t-107.5 65.5q-154 0 -154 -275q0 -143 34.5 -212t113.5 -69z" />
    <glyph glyph-name="omacron" unicode="&#x14d;" horiz-adv-x="522" 
d="M131 615v80h266v-80h-266zM257 -12q-222 0 -222 269q0 130 64.5 200t169.5 70q106 0 162 -66.5t56 -193.5q0 -138 -59.5 -208.5t-170.5 -70.5zM262 76q103 0 103 185q0 86 -23 130.5t-78 44.5q-107 0 -107 -178q0 -90 23.5 -136t81.5 -46z" />
    <glyph glyph-name="Obreve" unicode="&#x14e;" horiz-adv-x="641" 
d="M186 909l62 12q19 -69 82 -69q33 0 53 15.5t35 53.5l58 -12q-25 -135 -149 -135q-122 0 -141 135zM317 -12q-140 0 -206 95.5t-66 281.5q0 184 75 283t213 99q136 0 199.5 -93.5t63.5 -275.5q0 -390 -279 -390zM322 88q78 0 112 69t34 216q0 140 -32.5 205.5t-107.5 65.5
q-154 0 -154 -275q0 -143 34.5 -212t113.5 -69z" />
    <glyph glyph-name="obreve" unicode="&#x14f;" horiz-adv-x="522" 
d="M257 -12q-222 0 -222 269q0 130 64.5 200t169.5 70q106 0 162 -66.5t56 -193.5q0 -138 -59.5 -208.5t-170.5 -70.5zM262 76q103 0 103 185q0 86 -23 130.5t-78 44.5q-107 0 -107 -178q0 -90 23.5 -136t81.5 -46zM124 729l62 7q12 -80 79 -80q65 0 84 80l59 -7
q-20 -150 -146 -150q-124 0 -138 150z" />
    <glyph glyph-name="Ohungarumlaut" unicode="&#x150;" horiz-adv-x="641" 
d="M317 -12q-140 0 -206 95.5t-66 281.5q0 184 75 283t213 99q136 0 199.5 -93.5t63.5 -275.5q0 -390 -279 -390zM322 88q78 0 112 69t34 216q0 140 -32.5 205.5t-107.5 65.5q-154 0 -154 -275q0 -143 34.5 -212t113.5 -69zM497 923l49 -67l-162 -92l-32 45zM327 933l54 -68
l-153 -99l-33 42z" />
    <glyph glyph-name="ohungarumlaut" unicode="&#x151;" horiz-adv-x="522" 
d="M410 752l63 -53l-140 -130l-40 35zM264 759l69 -52l-127 -136l-42 31zM257 -12q-222 0 -222 269q0 130 64.5 200t169.5 70q106 0 162 -66.5t56 -193.5q0 -138 -59.5 -208.5t-170.5 -70.5zM262 76q103 0 103 185q0 86 -23 130.5t-78 44.5q-107 0 -107 -178
q0 -90 23.5 -136t81.5 -46z" />
    <glyph glyph-name="OE" unicode="&#x152;" horiz-adv-x="862" 
d="M776 426v-99h-236v-225h285v-102h-425q-48 -12 -90 -12q-265 0 -265 375q0 184 74 284t208 100q43 0 89 -13h390v-102h-266v-206h236zM322 88q54 0 94 17v520q-38 19 -88 19q-154 0 -154 -278q0 -141 34.5 -209.5t113.5 -68.5z" />
    <glyph glyph-name="oe" unicode="&#x153;" horiz-adv-x="824" 
d="M684 179l100 -9q-11 -100 -67.5 -141t-132.5 -41q-110 0 -163 81q-57 -81 -168 -81q-107 0 -162.5 68.5t-55.5 191.5q0 137 63.5 208t166.5 71q108 0 163 -83q61 83 167 83q107 0 156 -76.5t35 -215.5h-304q0 -157 106 -157q83 0 96 101zM261 76q104 0 104 184
q0 88 -23.5 132t-78.5 44q-106 0 -106 -184q0 -176 104 -176zM482 310h191q5 132 -89 132q-97 0 -102 -132z" />
    <glyph glyph-name="Racute" unicode="&#x154;" horiz-adv-x="587" 
d="M427 0l-144 308h-7h-76v-308h-124v734h229q236 0 236 -201q0 -163 -136 -208l157 -325h-135zM200 404h66q78 0 113 26.5t35 95.5q0 56 -31 82t-97 26h-86v-230zM352 928l48 -83l-178 -83l-32 55z" />
    <glyph glyph-name="racute" unicode="&#x155;" horiz-adv-x="437" 
d="M285 762l72 -65l-144 -132l-47 42zM419 334l-113 -7q6 58 -4.5 82t-40.5 24q-86 0 -86 -168v-265h-118v515h108l5 -73h2q38 85 132 85q67 0 98 -48t17 -145z" />
    <glyph glyph-name="Rcommaaccent" unicode="&#x156;" horiz-adv-x="587" 
d="M427 0l-144 308h-7h-76v-308h-124v734h229q236 0 236 -201q0 -163 -136 -208l157 -325h-135zM200 404h66q78 0 113 26.5t35 95.5q0 56 -31 82t-97 26h-86v-230zM250 -152v107h105v-89l-45 -118l-50 12l22 88h-32z" />
    <glyph glyph-name="rcommaaccent" unicode="&#x157;" horiz-adv-x="437" 
d="M63 -152v107h105v-89l-45 -118l-50 12l22 88h-32zM419 334l-113 -7q6 58 -4.5 82t-40.5 24q-86 0 -86 -168v-265h-118v515h108l5 -73h2q38 85 132 85q67 0 98 -48t17 -145z" />
    <glyph glyph-name="Rcaron" unicode="&#x158;" horiz-adv-x="587" 
d="M313 767h-63l-118 111l35 44l115 -73l115 73l34 -44zM427 0l-144 308h-7h-76v-308h-124v734h229q236 0 236 -201q0 -163 -136 -208l157 -325h-135zM200 404h66q78 0 113 26.5t35 95.5q0 56 -31 82t-97 26h-86v-230z" />
    <glyph glyph-name="rcaron" unicode="&#x159;" horiz-adv-x="437" 
d="M270 576h-62l-114 143l44 38l102 -96l101 96l44 -38zM419 334l-113 -7q6 58 -4.5 82t-40.5 24q-86 0 -86 -168v-265h-118v515h108l5 -73h2q38 85 132 85q67 0 98 -48t17 -145z" />
    <glyph glyph-name="Sacute" unicode="&#x15a;" horiz-adv-x="564" 
d="M518 528l-119 -20q-7 71 -35.5 105t-83.5 34q-50 0 -77 -25t-27 -71q0 -48 30.5 -72t90.5 -44q98 -30 128 -45q101 -53 101 -174q0 -108 -68 -168t-176 -60q-119 0 -182.5 55.5t-73.5 173.5l126 17q7 -75 36 -109.5t97 -34.5q56 0 85.5 27.5t29.5 77.5q0 54 -34.5 80
t-100.5 45q-99 30 -135 52q-83 53 -83 165q0 98 66.5 154.5t172.5 56.5q215 0 232 -220zM364 928l48 -83l-178 -83l-32 55z" />
    <glyph glyph-name="sacute" unicode="&#x15b;" horiz-adv-x="453" 
d="M278 762l72 -65l-144 -132l-47 42zM417 375l-103 -18q-9 85 -83 85q-76 0 -76 -57q0 -30 27.5 -47t67.5 -26t79.5 -22.5t67 -47.5t27.5 -89q0 -78 -58 -121.5t-144 -43.5q-91 0 -139.5 38.5t-58.5 121.5l107 14q7 -46 26.5 -68t66.5 -22q83 0 83 65q0 32 -27.5 50
t-66.5 27t-78 21.5t-66.5 45.5t-27.5 87q0 76 54.5 117.5t137.5 41.5q164 0 184 -152z" />
    <glyph glyph-name="Scircumflex" unicode="&#x15c;" horiz-adv-x="564" 
d="M518 528l-119 -20q-7 71 -35.5 105t-83.5 34q-50 0 -77 -25t-27 -71q0 -48 30.5 -72t90.5 -44q98 -30 128 -45q101 -53 101 -174q0 -108 -68 -168t-176 -60q-119 0 -182.5 55.5t-73.5 173.5l126 17q7 -75 36 -109.5t97 -34.5q56 0 85.5 27.5t29.5 77.5q0 54 -34.5 80
t-100.5 45q-99 30 -135 52q-83 53 -83 165q0 98 66.5 154.5t172.5 56.5q215 0 232 -220zM263 918h63l119 -114l-35 -43l-117 74l-115 -74l-34 43z" />
    <glyph glyph-name="scircumflex" unicode="&#x15d;" horiz-adv-x="453" 
d="M200 746h63l114 -142l-44 -38l-103 93l-100 -93l-44 38zM417 375l-103 -18q-9 85 -83 85q-76 0 -76 -57q0 -30 27.5 -47t67.5 -26t79.5 -22.5t67 -47.5t27.5 -89q0 -78 -58 -121.5t-144 -43.5q-91 0 -139.5 38.5t-58.5 121.5l107 14q7 -46 26.5 -68t66.5 -22q83 0 83 65
q0 32 -27.5 50t-66.5 27t-78 21.5t-66.5 45.5t-27.5 87q0 76 54.5 117.5t137.5 41.5q164 0 184 -152z" />
    <glyph glyph-name="Scedilla" unicode="&#x15e;" horiz-adv-x="564" 
d="M223 -85l30 74q-105 7 -161 62.5t-66 165.5l126 17q7 -75 36 -109.5t97 -34.5q56 0 85.5 27.5t29.5 77.5q0 54 -34.5 80t-100.5 45q-99 30 -135 52q-83 53 -83 165q0 98 66.5 154.5t172.5 56.5q215 0 232 -220l-119 -20q-7 71 -35.5 105t-83.5 34q-50 0 -77 -25t-27 -71
q0 -48 30.5 -72t90.5 -44q98 -30 128 -45q101 -53 101 -174q0 -102 -60.5 -161t-158.5 -66l-17 -37q11 5 28 5q36 0 57.5 -23t21.5 -61q0 -43 -29.5 -69t-78.5 -26q-66 0 -107 51l41 38q25 -29 55 -29q36 0 36 37q0 35 -32 35q-13 0 -27 -9z" />
    <glyph glyph-name="scedilla" unicode="&#x15f;" horiz-adv-x="453" 
d="M161 -85l30 75q-76 6 -117 44t-50 114l107 14q7 -46 26.5 -68t66.5 -22q83 0 83 65q0 32 -27.5 50t-66.5 27t-78 21.5t-66.5 45.5t-27.5 87q0 76 54.5 117.5t137.5 41.5q164 0 184 -152l-103 -18q-9 85 -83 85q-76 0 -76 -57q0 -30 27.5 -47t67.5 -26t79.5 -22.5
t67 -47.5t27.5 -89q0 -73 -50.5 -115.5t-128.5 -48.5l-17 -37q11 5 28 5q36 0 57.5 -23t21.5 -61q0 -43 -29.5 -69t-78.5 -26q-66 0 -107 51l41 38q25 -29 55 -29q36 0 36 37q0 35 -32 35q-13 0 -27 -9z" />
    <glyph glyph-name="Scaron" unicode="&#x160;" horiz-adv-x="564" 
d="M518 528l-119 -20q-7 71 -35.5 105t-83.5 34q-50 0 -77 -25t-27 -71q0 -48 30.5 -72t90.5 -44q98 -30 128 -45q101 -53 101 -174q0 -108 -68 -168t-176 -60q-119 0 -182.5 55.5t-73.5 173.5l126 17q7 -75 36 -109.5t97 -34.5q56 0 85.5 27.5t29.5 77.5q0 54 -34.5 80
t-100.5 45q-99 30 -135 52q-83 53 -83 165q0 98 66.5 154.5t172.5 56.5q215 0 232 -220zM324 774h-63l-118 111l35 44l115 -73l115 73l34 -44z" />
    <glyph glyph-name="scaron" unicode="&#x161;" horiz-adv-x="453" 
d="M261 576h-62l-114 143l44 38l102 -96l101 96l44 -38zM417 375l-103 -18q-9 85 -83 85q-76 0 -76 -57q0 -30 27.5 -47t67.5 -26t79.5 -22.5t67 -47.5t27.5 -89q0 -78 -58 -121.5t-144 -43.5q-91 0 -139.5 38.5t-58.5 121.5l107 14q7 -46 26.5 -68t66.5 -22q83 0 83 65
q0 32 -27.5 50t-66.5 27t-78 21.5t-66.5 45.5t-27.5 87q0 76 54.5 117.5t137.5 41.5q164 0 184 -152z" />
    <glyph glyph-name="uni0162" unicode="&#x162;" horiz-adv-x="517" 
d="M197 0v632h-189v102h501v-102h-188v-632h-38l-23 -48q11 5 28 5q36 0 57.5 -23t21.5 -61q0 -43 -29.5 -69t-78.5 -26q-66 0 -107 51l41 38q25 -29 55 -29q36 0 36 37q0 35 -32 35q-13 0 -27 -9l-32 14l35 85h-31z" />
    <glyph glyph-name="uni0163" unicode="&#x163;" horiz-adv-x="343" 
d="M138 -85l33 81q-94 26 -94 163v271h-61v85h61v105l118 36v-141h113v-85h-113v-256q0 -53 14.5 -74.5t52.5 -21.5q26 0 58 10l11 -85q-41 -15 -98 -15h-11l-17 -36q11 5 28 5q36 0 57.5 -23t21.5 -61q0 -43 -29.5 -69t-78.5 -26q-66 0 -107 51l41 38q25 -29 55 -29
q36 0 36 37q0 35 -32 35q-13 0 -27 -9z" />
    <glyph glyph-name="Tcaron" unicode="&#x164;" horiz-adv-x="517" 
d="M289 767h-63l-118 111l35 44l115 -73l115 73l34 -44zM197 0v632h-189v102h501v-102h-188v-632h-124z" />
    <glyph glyph-name="tcaron" unicode="&#x165;" horiz-adv-x="343" 
d="M236 754h94l-33 -193l-58 3zM16 430v85h61v105l118 36v-141h113v-85h-113v-256q0 -53 14.5 -74.5t52.5 -21.5q26 0 58 10l11 -85q-41 -15 -98 -15q-80 0 -118 41t-38 130v271h-61z" />
    <glyph glyph-name="Tbar" unicode="&#x166;" horiz-adv-x="517" 
d="M197 0v334h-145v94h145v204h-189v102h501v-102h-188v-204h144v-94h-144v-334h-124z" />
    <glyph glyph-name="tbar" unicode="&#x167;" horiz-adv-x="343" 
d="M16 430v85h61v105l118 36v-141h113v-85h-113v-78h113v-80h-113v-98q0 -53 14.5 -74.5t52.5 -21.5q26 0 58 10l11 -85q-41 -15 -98 -15q-80 0 -118 41t-38 130v113h-61v80h61v78h-61z" />
    <glyph glyph-name="Utilde" unicode="&#x168;" horiz-adv-x="650" 
d="M231 780l-53 8q20 105 86 105q25 0 63.5 -14.5t53.5 -14.5q24 0 35 40l51 -8q-20 -108 -85 -108q-28 0 -67 14t-51 14q-25 0 -33 -36zM458 283v451h123v-479q0 -267 -260 -267q-136 0 -193.5 68.5t-57.5 200.5v477h122v-450q0 -103 29.5 -149t104.5 -46q74 0 103 45
t29 149z" />
    <glyph glyph-name="utilde" unicode="&#x169;" horiz-adv-x="523" 
d="M52 193v322h118v-314q0 -62 18.5 -91t59.5 -29q101 0 101 158v276h118v-515h-106l-7 75h-1q-46 -87 -143 -87q-158 0 -158 205zM167 605l-52 8q20 105 85 105q25 0 63.5 -14.5t52.5 -14.5q25 0 35 39l52 -8q-21 -107 -85 -107q-28 0 -67 14t-51 14q-24 0 -33 -36z" />
    <glyph glyph-name="Umacron" unicode="&#x16a;" horiz-adv-x="650" 
d="M190 795v81h266v-81h-266zM458 283v451h123v-479q0 -267 -260 -267q-136 0 -193.5 68.5t-57.5 200.5v477h122v-450q0 -103 29.5 -149t104.5 -46q74 0 103 45t29 149z" />
    <glyph glyph-name="umacron" unicode="&#x16b;" horiz-adv-x="523" 
d="M52 193v322h118v-314q0 -62 18.5 -91t59.5 -29q101 0 101 158v276h118v-515h-106l-7 75h-1q-46 -87 -143 -87q-158 0 -158 205zM125 615v80h266v-80h-266z" />
    <glyph glyph-name="Ubreve" unicode="&#x16c;" horiz-adv-x="650" 
d="M180 902l62 12q19 -69 82 -69q33 0 53 15.5t35 53.5l58 -12q-25 -135 -149 -135q-122 0 -141 135zM458 283v451h123v-479q0 -267 -260 -267q-136 0 -193.5 68.5t-57.5 200.5v477h122v-450q0 -103 29.5 -149t104.5 -46q74 0 103 45t29 149z" />
    <glyph glyph-name="ubreve" unicode="&#x16d;" horiz-adv-x="523" 
d="M52 193v322h118v-314q0 -62 18.5 -91t59.5 -29q101 0 101 158v276h118v-515h-106l-7 75h-1q-46 -87 -143 -87q-158 0 -158 205zM119 729l62 7q12 -80 79 -80q65 0 84 80l59 -7q-20 -150 -146 -150q-124 0 -138 150z" />
    <glyph glyph-name="Uring" unicode="&#x16e;" horiz-adv-x="650" 
d="M458 283v451h123v-479q0 -267 -260 -267q-136 0 -193.5 68.5t-57.5 200.5v477h122v-450q0 -103 29.5 -149t104.5 -46q74 0 103 45t29 149zM321 761q-99 0 -99 91q0 41 29 66t74 25q49 0 75 -23.5t26 -64.5q0 -44 -27 -69t-78 -25zM323 808q33 0 33 45q0 43 -32 43
q-36 0 -36 -44t35 -44z" />
    <glyph glyph-name="uring" unicode="&#x16f;" horiz-adv-x="523" 
d="M257 575q-99 0 -99 91q0 41 29 66t74 25q49 0 75 -23.5t26 -64.5q0 -44 -27 -69t-78 -25zM259 622q33 0 33 45q0 43 -32 43q-36 0 -36 -44t35 -44zM52 193v322h118v-314q0 -62 18.5 -91t59.5 -29q101 0 101 158v276h118v-515h-106l-7 75h-1q-46 -87 -143 -87
q-158 0 -158 205z" />
    <glyph glyph-name="Uhungarumlaut" unicode="&#x170;" horiz-adv-x="650" 
d="M458 283v451h123v-479q0 -267 -260 -267q-136 0 -193.5 68.5t-57.5 200.5v477h122v-450q0 -103 29.5 -149t104.5 -46q74 0 103 45t29 149zM498 923l49 -67l-162 -92l-32 45zM328 933l54 -68l-153 -99l-33 42z" />
    <glyph glyph-name="uhungarumlaut" unicode="&#x171;" horiz-adv-x="523" 
d="M52 193v322h118v-314q0 -62 18.5 -91t59.5 -29q101 0 101 158v276h118v-515h-106l-7 75h-1q-46 -87 -143 -87q-158 0 -158 205zM394 752l63 -53l-140 -130l-40 35zM248 759l69 -52l-127 -136l-42 31z" />
    <glyph glyph-name="Uogonek" unicode="&#x172;" horiz-adv-x="650" 
d="M458 283v451h123v-479q0 -89 -30.5 -147t-92.5 -96q-36 -22 -55.5 -52t-19.5 -57q0 -25 24 -25q26 0 45 32l44 -31q-42 -74 -123 -74q-37 0 -59 17t-22 50q0 60 75 119q-21 -3 -46 -3q-136 0 -193.5 68.5t-57.5 200.5v477h122v-450q0 -103 29.5 -149t104.5 -46
q74 0 103 45t29 149z" />
    <glyph glyph-name="uogonek" unicode="&#x173;" horiz-adv-x="523" 
d="M52 193v322h118v-314q0 -62 18.5 -91t59.5 -29q101 0 101 158v276h118v-515h-22q-50 -57 -50 -96q0 -26 25 -26q24 0 44 32l45 -31q-43 -74 -124 -74q-37 0 -58.5 17t-21.5 50q0 59 76 128h-20l-7 75h-1q-46 -87 -143 -87q-158 0 -158 205z" />
    <glyph glyph-name="Wcircumflex" unicode="&#x174;" horiz-adv-x="886" 
d="M717 0h-158l-115 544h-4l-112 -544h-159l-156 734h127l108 -616h4l130 616h124l132 -615h3l109 615h123zM414 918h63l119 -114l-35 -43l-117 74l-115 -74l-34 43z" />
    <glyph glyph-name="wcircumflex" unicode="&#x175;" horiz-adv-x="761" 
d="M353 746h63l114 -142l-44 -38l-103 93l-100 -93l-44 38zM285 0h-133l-143 515h122l90 -396h2l94 396h135l96 -396h2l87 396h116l-139 -515h-135l-96 394h-1z" />
    <glyph glyph-name="Ycircumflex" unicode="&#x176;" horiz-adv-x="559" 
d="M342 281v-281h-122v277l-225 457h137l150 -334l154 334h128zM250 918h63l119 -114l-35 -43l-117 74l-115 -74l-34 43z" />
    <glyph glyph-name="ycircumflex" unicode="&#x177;" horiz-adv-x="460" 
d="M456 515l-169 -518q-36 -109 -74.5 -150.5t-113.5 -41.5q-52 0 -82 13l13 81q29 -8 51 -8q34 0 53 22t36 78l4 14l-167 510h127l98 -381h2l100 381h122zM202 746h63l114 -142l-44 -38l-103 93l-100 -93l-44 38z" />
    <glyph glyph-name="Ydieresis" unicode="&#x178;" horiz-adv-x="559" 
d="M342 281v-281h-122v277l-225 457h137l150 -334l154 334h128zM315 781v106h94v-106h-94zM153 781v106h94v-106h-94z" />
    <glyph glyph-name="Zacute" unicode="&#x179;" horiz-adv-x="512" 
d="M34 632v102h443v-94l-309 -538h311v-102h-455v94l309 538h-299zM323 928l48 -83l-178 -83l-32 55z" />
    <glyph glyph-name="zacute" unicode="&#x17a;" horiz-adv-x="432" 
d="M264 762l72 -65l-144 -132l-47 42zM37 419v96h367v-89l-234 -329h237v-97h-380v89l236 330h-226z" />
    <glyph glyph-name="Zdotaccent" unicode="&#x17b;" horiz-adv-x="512" 
d="M193 785v118h120v-118h-120zM34 632v102h443v-94l-309 -538h311v-102h-455v94l309 538h-299z" />
    <glyph glyph-name="zdotaccent" unicode="&#x17c;" horiz-adv-x="432" 
d="M37 419v96h367v-89l-234 -329h237v-97h-380v89l236 330h-226zM163 616v118h118v-118h-118z" />
    <glyph glyph-name="Zcaron" unicode="&#x17d;" horiz-adv-x="512" 
d="M284 767h-63l-118 111l35 44l115 -73l115 73l34 -44zM34 632v102h443v-94l-309 -538h311v-102h-455v94l309 538h-299z" />
    <glyph glyph-name="zcaron" unicode="&#x17e;" horiz-adv-x="432" 
d="M251 576h-62l-114 143l44 38l102 -96l101 96l44 -38zM37 419v96h367v-89l-234 -329h237v-97h-380v89l236 330h-226z" />
    <glyph glyph-name="longs" unicode="&#x17f;" horiz-adv-x="280" 
d="M326 733l-13 -87q-32 10 -61 10q-37 0 -53 -24t-16 -76v-556h-118v550q0 100 42 148.5t129 48.5q42 0 90 -14z" />
    <glyph glyph-name="florin" unicode="&#x192;" horiz-adv-x="436" 
d="M44 370l15 87h95l19 106q17 96 62 140t130 44q50 0 96 -18l-26 -83q-30 10 -60 10q-37 0 -57.5 -24t-29.5 -76l-18 -99h123l-16 -87h-122l-57 -331q-16 -92 -62.5 -135.5t-133.5 -43.5q-43 0 -91 15l26 86q30 -10 60 -10q36 0 56 23t29 73l57 323h-95z" />
    <glyph glyph-name="Aringacute" unicode="&#x1fa;" horiz-adv-x="620" 
d="M130 0h-125l222 727q-23 23 -23 67q0 41 29 66t74 25q49 0 75 -23.5t26 -64.5q0 -39 -21 -63l228 -734h-128l-56 186h-247zM404 285l-97 332h-2l-96 -332h195zM365 1053l48 -83l-178 -83l-32 55zM305 750q33 0 33 45q0 43 -32 43q-36 0 -36 -44t35 -44z" />
    <glyph glyph-name="aringacute" unicode="&#x1fb;" horiz-adv-x="506" 
d="M481 75l3 -73q-36 -9 -62 -9q-75 0 -91 70q-42 -75 -147 -75q-76 0 -113.5 41t-37.5 102q0 39 15 67.5t37 45t62.5 28t76 16.5t93.5 10v29q0 63 -20.5 89t-61.5 26q-43 0 -59.5 -18.5t-16.5 -52.5q0 -19 3 -38l-106 -9q-5 27 -5 47q0 72 47.5 114t144.5 42
q59 0 98.5 -17.5t59 -52.5t26.5 -73t7 -92v-182q0 -38 27 -38q8 0 20 3zM317 171v53q-97 -5 -131 -24.5t-34 -61.5q0 -31 19 -50t53 -19q40 0 66.5 29t26.5 73zM239 565q-99 0 -99 91q0 41 29 66t74 25q49 0 75 -23.5t26 -64.5q0 -44 -27 -69t-78 -25zM241 612q33 0 33 45
q0 43 -32 43q-36 0 -36 -44t35 -44zM301 928l48 -83l-178 -83l-32 55z" />
    <glyph glyph-name="AEacute" unicode="&#x1fc;" horiz-adv-x="860" 
d="M603 928l48 -83l-178 -83l-32 55zM774 416v-99h-236v-215h285v-102h-409v317h-185l-99 -317h-125l242 734h557v-102h-266v-216h236zM324 632l-69 -217h159v217h-90z" />
    <glyph glyph-name="aeacute" unicode="&#x1fd;" horiz-adv-x="776" 
d="M431 762l72 -65l-144 -132l-47 42zM635 179l101 -9q-6 -53 -26 -90.5t-50 -56.5t-60.5 -27t-65.5 -8q-126 0 -171 100q-51 -100 -179 -100q-76 0 -113.5 41t-37.5 102q0 39 15 67.5t37 45t62.5 28t76.5 16.5t93 10v29q0 63 -20.5 89t-61.5 26q-54 0 -67 -27.5t-6 -81.5
l-106 -9q-17 91 29 147t157 56q99 0 143 -74q57 74 159 74q109 0 158.5 -76t35.5 -216h-305q1 -75 25 -116t83 -41q83 0 94 101zM434 310h190q6 132 -89 132q-50 0 -74.5 -36t-26.5 -96zM317 171v53q-97 -6 -130 -25t-33 -60q0 -34 19 -52t52 -18q41 0 66.5 30t25.5 72z" />
    <glyph glyph-name="Oslashacute" unicode="&#x1fe;" horiz-adv-x="637" 
d="M398 939l48 -83l-178 -83l-32 55zM315 -12q-55 0 -101 16l-31 -70l-84 36l36 83q-90 91 -90 312q0 184 74.5 283t211.5 99q56 0 102 -17l30 68l85 -34l-38 -87q83 -90 83 -299q0 -390 -278 -390zM174 369q0 -117 21 -180l193 439q-25 16 -62 16q-152 0 -152 -275zM320 88
q77 0 110.5 69t33.5 216q0 103 -17 162l-190 -432q27 -15 63 -15z" />
    <glyph glyph-name="oslashacute" unicode="&#x1ff;" horiz-adv-x="522" 
d="M309 762l72 -65l-144 -132l-47 42zM257 -12q-46 0 -87 13l-38 -71l-73 39l41 76q-65 66 -65 212q0 130 64.5 200t169.5 70q43 0 84 -13l35 65l73 -37l-39 -72q65 -67 65 -203q0 -138 -59.5 -208.5t-170.5 -70.5zM262 76q103 0 103 185q0 49 -8 87l-141 -262
q19 -10 46 -10zM157 258q0 -58 8 -93l141 262q-18 9 -42 9q-107 0 -107 -178z" />
    <glyph glyph-name="Scommaaccent" unicode="&#x218;" horiz-adv-x="564" 
d="M518 528l-119 -20q-7 71 -35.5 105t-83.5 34q-50 0 -77 -25t-27 -71q0 -48 30.5 -72t90.5 -44q98 -30 128 -45q101 -53 101 -174q0 -108 -68 -168t-176 -60q-119 0 -182.5 55.5t-73.5 173.5l126 17q7 -75 36 -109.5t97 -34.5q56 0 85.5 27.5t29.5 77.5q0 54 -34.5 80
t-100.5 45q-99 30 -135 52q-83 53 -83 165q0 98 66.5 154.5t172.5 56.5q215 0 232 -220zM234 -152v107h105v-89l-45 -118l-50 12l22 88h-32z" />
    <glyph glyph-name="scommaaccent" unicode="&#x219;" horiz-adv-x="453" 
d="M172 -152v107h105v-89l-45 -118l-50 12l22 88h-32zM417 375l-103 -18q-9 85 -83 85q-76 0 -76 -57q0 -30 27.5 -47t67.5 -26t79.5 -22.5t67 -47.5t27.5 -89q0 -78 -58 -121.5t-144 -43.5q-91 0 -139.5 38.5t-58.5 121.5l107 14q7 -46 26.5 -68t66.5 -22q83 0 83 65
q0 32 -27.5 50t-66.5 27t-78 21.5t-66.5 45.5t-27.5 87q0 76 54.5 117.5t137.5 41.5q164 0 184 -152z" />
    <glyph glyph-name="uni021A" unicode="&#x21a;" horiz-adv-x="517" 
d="M197 0v632h-189v102h501v-102h-188v-632h-124zM205 -152v107h105v-89l-45 -118l-50 12l22 88h-32z" />
    <glyph glyph-name="uni021B" unicode="&#x21b;" horiz-adv-x="343" 
d="M155 -152v107h105v-89l-45 -118l-50 12l22 88h-32zM16 430v85h61v105l118 36v-141h113v-85h-113v-256q0 -53 14.5 -74.5t52.5 -21.5q26 0 58 10l11 -85q-41 -15 -98 -15q-80 0 -118 41t-38 130v271h-61z" />
    <glyph glyph-name="dotlessj" unicode="&#x237;" horiz-adv-x="230" 
d="M-74 -184l13 86q30 -8 54 -8q36 0 51 22.5t15 75.5v523h118v-514q0 -104 -42.5 -150t-125.5 -46q-43 0 -83 11z" />
    <glyph glyph-name="apostrophe" unicode="&#x2bc;" 
d="M302 723v-107h-33l23 -88l-50 -12l-45 118v89h105z" />
    <glyph glyph-name="circumflex" unicode="&#x2c6;" 
d="M219 746h63l114 -142l-44 -38l-103 93l-100 -93l-44 38z" />
    <glyph glyph-name="caron" unicode="&#x2c7;" 
d="M280 576h-62l-114 143l44 38l102 -96l101 96l44 -38z" />
    <glyph glyph-name="uni02C9" unicode="&#x2c9;" 
d="M117 615v80h266v-80h-266z" />
    <glyph glyph-name="breve" unicode="&#x2d8;" 
d="M110 729l62 7q12 -80 79 -80q65 0 84 80l59 -7q-20 -150 -146 -150q-124 0 -138 150z" />
    <glyph glyph-name="dotaccent" unicode="&#x2d9;" 
d="M191 616v118h118v-118h-118z" />
    <glyph glyph-name="ring" unicode="&#x2da;" 
d="M248 575q-99 0 -99 91q0 41 29 66t74 25q49 0 75 -23.5t26 -64.5q0 -44 -27 -69t-78 -25zM250 622q33 0 33 45q0 43 -32 43q-36 0 -36 -44t35 -44z" />
    <glyph glyph-name="ogonek" unicode="&#x2db;" 
d="M234 9l58 -4q-55 -61 -55 -101q0 -26 25 -26q24 0 44 32l45 -31q-43 -74 -124 -74q-37 0 -58.5 17t-21.5 50q0 62 87 137z" />
    <glyph glyph-name="tilde" unicode="&#x2dc;" 
d="M158 605l-52 8q20 105 85 105q25 0 63.5 -14.5t52.5 -14.5q25 0 35 39l52 -8q-21 -107 -85 -107q-28 0 -67 14t-51 14q-24 0 -33 -36z" />
    <glyph glyph-name="hungarumlaut" unicode="&#x2dd;" 
d="M396 752l63 -53l-140 -130l-40 35zM250 759l69 -52l-127 -136l-42 31z" />
    <glyph glyph-name="uni0394" unicode="&#x394;" horiz-adv-x="654" 
d="M634 0h-614l230 734h152zM324 619l-151 -516h301l-148 516h-2z" />
    <glyph glyph-name="uni03A9" unicode="&#x3a9;" horiz-adv-x="756" 
d="M513 124v-28h148v-96h-234v143q57 24 87.5 81.5t30.5 178.5q0 241 -161 241q-77 0 -124.5 -58.5t-47.5 -190.5q0 -113 28 -169t86 -83v-143h-236v96h152v27q-165 61 -165 281q0 152 81 247.5t228 95.5q78 0 136 -25.5t91.5 -71.5t49.5 -103t16 -126q0 -214 -166 -297z
" />
    <glyph glyph-name="uni03BC" unicode="&#x3bc;" horiz-adv-x="591" 
d="M89 -176v691h115v-313q0 -63 13.5 -91.5t57.5 -28.5q58 0 85 46t27 120v267h115v-515h-95l-17 86q-21 -41 -61 -64t-87 -23q-29 0 -48 10l-3 -3l17 -182h-119z" />
    <glyph glyph-name="pi" unicode="&#x3c0;" horiz-adv-x="624" 
d="M532 515v-515h-117v425h-205v-425h-118v515h440z" />
    <glyph glyph-name="Wgrave" unicode="&#x1e80;" horiz-adv-x="886" 
d="M325 845l50 82l161 -110l-34 -55zM717 0h-158l-115 544h-4l-112 -544h-159l-156 734h127l108 -616h4l130 616h124l132 -615h3l109 615h123z" />
    <glyph glyph-name="wgrave" unicode="&#x1e81;" horiz-adv-x="761" 
d="M285 0h-133l-143 515h122l90 -396h2l94 396h135l96 -396h2l87 396h116l-139 -515h-135l-96 394h-1zM271 697l74 64l119 -154l-47 -41z" />
    <glyph glyph-name="Wacute" unicode="&#x1e82;" horiz-adv-x="886" 
d="M515 928l48 -83l-178 -83l-32 55zM717 0h-158l-115 544h-4l-112 -544h-159l-156 734h127l108 -616h4l130 616h124l132 -615h3l109 615h123z" />
    <glyph glyph-name="wacute" unicode="&#x1e83;" horiz-adv-x="761" 
d="M421 762l72 -65l-144 -132l-47 42zM285 0h-133l-143 515h122l90 -396h2l94 396h135l96 -396h2l87 396h116l-139 -515h-135l-96 394h-1z" />
    <glyph glyph-name="Wdieresis" unicode="&#x1e84;" horiz-adv-x="886" 
d="M479 781v106h94v-106h-94zM317 781v106h94v-106h-94zM717 0h-158l-115 544h-4l-112 -544h-159l-156 734h127l108 -616h4l130 616h124l132 -615h3l109 615h123z" />
    <glyph glyph-name="wdieresis" unicode="&#x1e85;" horiz-adv-x="761" 
d="M417 608v106h95v-106h-95zM256 608v106h95v-106h-95zM285 0h-133l-143 515h122l90 -396h2l94 396h135l96 -396h2l87 396h116l-139 -515h-135l-96 394h-1z" />
    <glyph glyph-name="Ygrave" unicode="&#x1ef2;" horiz-adv-x="559" 
d="M342 281v-281h-122v277l-225 457h137l150 -334l154 334h128zM160 845l50 82l161 -110l-34 -55z" />
    <glyph glyph-name="ygrave" unicode="&#x1ef3;" horiz-adv-x="460" 
d="M456 515l-169 -518q-36 -109 -74.5 -150.5t-113.5 -41.5q-52 0 -82 13l13 81q29 -8 51 -8q34 0 53 22t36 78l4 14l-167 510h127l98 -381h2l100 381h122zM117 697l74 64l119 -154l-47 -41z" />
    <glyph glyph-name="thinspace" unicode="&#x2009;" horiz-adv-x="125" 
 />
    <glyph glyph-name="endash" unicode="&#x2013;" horiz-adv-x="417" 
d="M0 352h417v-89h-417v89z" />
    <glyph glyph-name="emdash" unicode="&#x2014;" horiz-adv-x="834" 
d="M0 351h834v-88h-834v88z" />
    <glyph glyph-name="quoteleft" unicode="&#x2018;" horiz-adv-x="202" 
d="M160 610v-133h-120v107l62 169l46 -13l-36 -130h48z" />
    <glyph glyph-name="quoteright" unicode="&#x2019;" horiz-adv-x="201" 
d="M38 602v132h120v-107l-62 -169l-46 13l35 131h-47z" />
    <glyph glyph-name="quotesinglbase" unicode="&#x201a;" horiz-adv-x="202" 
d="M44 0v132h120v-107l-61 -169l-47 13l36 131h-48z" />
    <glyph glyph-name="quotedblleft" unicode="&#x201c;" horiz-adv-x="369" 
d="M330 610v-133h-120v107l62 169l46 -13l-36 -130h48zM160 610v-133h-120v107l62 169l46 -13l-36 -130h48z" />
    <glyph glyph-name="quotedblright" unicode="&#x201d;" horiz-adv-x="371" 
d="M208 602v132h120v-107l-62 -169l-46 13l35 131h-47zM38 602v132h120v-107l-62 -169l-46 13l35 131h-47z" />
    <glyph glyph-name="quotedblbase" unicode="&#x201e;" horiz-adv-x="372" 
d="M208 0v132h120v-107l-62 -169l-46 13l35 131h-47zM38 0v132h120v-107l-62 -169l-46 13l35 131h-47z" />
    <glyph glyph-name="dagger" unicode="&#x2020;" horiz-adv-x="406" 
d="M387 528l-134 -12l-15 -239h-70l-16 239l-131 12v66l133 11l12 129h74l11 -129l136 -11v-66z" />
    <glyph glyph-name="daggerdbl" unicode="&#x2021;" horiz-adv-x="406" 
d="M386 350l-135 -12l-15 -88h-67l-14 88l-135 12v67l135 11l14 57l-14 69l-135 11v67l135 11l11 91h74l11 -91l135 -11v-67l-135 -11l-15 -70l15 -56l135 -11v-67z" />
    <glyph glyph-name="bullet" unicode="&#x2022;" horiz-adv-x="455" 
d="M117 340q0 54 30 81.5t79 27.5q50 0 81 -28t31 -81t-31 -81t-81 -28q-49 0 -79 28t-30 81z" />
    <glyph glyph-name="ellipsis" unicode="&#x2026;" horiz-adv-x="723" 
d="M58 0v130h125v-130h-125zM299 0v130h125v-130h-125zM540 0v130h125v-130h-125z" />
    <glyph glyph-name="perthousand" unicode="&#x2030;" horiz-adv-x="986" 
d="M20 559q0 81 42 128t117 47q147 0 147 -170q0 -178 -155 -178q-151 0 -151 173zM811 -10q-151 0 -151 172q0 82 42 129t117 47q147 0 147 -170q0 -178 -155 -178zM813 57q36 0 52 26t16 83q0 54 -15 79t-50 25q-70 0 -70 -106q0 -107 67 -107zM173 453q36 0 51.5 26
t15.5 84q0 54 -14.5 79t-49.5 25q-70 0 -70 -106q0 -108 67 -108zM477 -10q-152 0 -152 172q0 82 42.5 129t117.5 47q147 0 147 -170q0 -178 -155 -178zM479 57q36 0 51.5 26t15.5 83q0 54 -15 79t-50 25q-69 0 -69 -106q0 -107 67 -107zM114 140l-56 69l537 416l59 -67z
" />
    <glyph glyph-name="guilsinglleft" unicode="&#x2039;" horiz-adv-x="259" 
d="M226 78l-69 -31l-124 204l123 197l69 -29l-89 -165z" />
    <glyph glyph-name="guilsinglright" unicode="&#x203a;" horiz-adv-x="258" 
d="M98 47l-69 31l90 176l-89 165l69 29l123 -197z" />
    <glyph glyph-name="fraction" unicode="&#x2044;" horiz-adv-x="188" 
d="M-149 25l407 728l78 -41l-408 -730z" />
    <glyph glyph-name="zerosuperior" unicode="&#x2070;" horiz-adv-x="434" 
d="M214 383q-90 0 -131.5 58.5t-41.5 174.5q0 114 47.5 175.5t135.5 61.5t128.5 -57.5t40.5 -171.5q0 -241 -179 -241zM218 457q43 0 60.5 37.5t17.5 126.5q0 84 -17 120t-58 36q-42 0 -62 -37.5t-20 -120.5q0 -86 17.5 -124t61.5 -38z" />
    <glyph glyph-name="foursuperior" unicode="&#x2074;" horiz-adv-x="363" 
d="M94 544h104v201h-2zM291 845v-301h51v-73h-51v-81h-93v81h-187v57l166 317h114z" />
    <glyph glyph-name="fivesuperior" unicode="&#x2075;" horiz-adv-x="370" 
d="M183 620q-40 0 -59 -38l-78 6l18 257h250v-76h-173l-12 -113q29 34 83 34q56 0 90 -36t34 -110q0 -161 -156 -161q-76 0 -109 37t-37 104l92 6q3 -43 17.5 -60.5t41.5 -17.5q56 0 56 86q0 82 -58 82z" />
    <glyph glyph-name="sixsuperior" unicode="&#x2076;" horiz-adv-x="387" 
d="M210 784q-34 0 -52 -33.5t-22 -112.5q31 40 92 40q53 0 88.5 -35t35.5 -104q0 -79 -41 -117.5t-114 -38.5q-84 0 -120 49.5t-36 160.5q0 260 175 260q136 0 128 -134l-90 -6q5 71 -44 71zM197 613q-63 0 -63 -74q0 -87 63 -87q61 0 61 83q0 78 -61 78z" />
    <glyph glyph-name="sevensuperior" unicode="&#x2077;" horiz-adv-x="310" 
d="M171 390h-101q4 215 126 379h-179v76h274v-54q-68 -91 -92 -181t-28 -220z" />
    <glyph glyph-name="eightsuperior" unicode="&#x2078;" horiz-adv-x="400" 
d="M196 383q-83 0 -122 35t-39 94q0 96 92 125q-73 23 -73 99q0 53 39.5 85t111.5 32q71 0 105.5 -30.5t34.5 -81.5q0 -78 -76 -102q95 -23 95 -120q0 -62 -41 -99t-127 -37zM199 452q71 0 71 75q0 78 -70 78t-70 -80q0 -73 69 -73zM199 670q51 0 51 63q0 58 -50 58
q-51 0 -51 -60q0 -61 50 -61z" />
    <glyph glyph-name="ninesuperior" unicode="&#x2079;" horiz-adv-x="387" 
d="M185 453q68 0 72 144q-30 -40 -91 -40q-54 0 -90.5 34.5t-36.5 103.5q0 78 42 118t116 40q81 0 117.5 -49.5t36.5 -158.5q0 -131 -40 -196.5t-129 -65.5q-140 0 -142 134l90 6q2 -37 14.5 -53.5t40.5 -16.5zM194 622q63 0 63 78q0 84 -63 84q-61 0 -61 -83q0 -79 61 -79z
" />
    <glyph glyph-name="zeroinferior" unicode="&#x2080;" horiz-adv-x="434" 
d="M214 -137q-90 0 -131.5 58.5t-41.5 174.5q0 114 47.5 175.5t135.5 61.5t128.5 -57.5t40.5 -171.5q0 -241 -179 -241zM218 -63q43 0 60.5 37.5t17.5 126.5q0 84 -17 120t-58 36q-42 0 -62 -37.5t-20 -120.5q0 -86 17.5 -124t61.5 -38z" />
    <glyph glyph-name="oneinferior" unicode="&#x2081;" horiz-adv-x="265" 
d="M34 188l-19 71q68 23 122 66h65v-455h-95v352q-30 -19 -73 -34z" />
    <glyph glyph-name="twoinferior" unicode="&#x2082;" horiz-adv-x="366" 
d="M150 -54h168v-76h-272q-4 40 4 84q6 29 27 58.5t47 53t51 47.5t42 50.5t17 52.5q0 23 -13.5 35.5t-36.5 12.5q-60 0 -45 -89l-89 -6q-14 71 20 117.5t118 46.5q67 0 104 -31t37 -87q0 -37 -18 -70.5t-43.5 -58t-51.5 -47t-45 -46.5t-21 -47z" />
    <glyph glyph-name="threeinferior" unicode="&#x2083;" horiz-adv-x="366" 
d="M132 67l-7 69q54 2 77.5 18.5t23.5 55.5q0 54 -51 54q-31 0 -42 -19.5t-4 -67.5l-88 -6q-14 71 19 116.5t118 45.5q67 0 105.5 -29t38.5 -84q0 -85 -90 -111q99 -21 99 -112q0 -66 -39.5 -100t-110.5 -34q-80 0 -114 35.5t-37 106.5l92 5q3 -42 16 -60t45 -18
q24 0 38.5 17t14.5 48q0 41 -25 56.5t-79 13.5z" />
    <glyph glyph-name="fourinferior" unicode="&#x2084;" horiz-adv-x="363" 
d="M94 24h104v201h-2zM291 325v-301h51v-73h-51v-81h-93v81h-187v57l166 317h114z" />
    <glyph glyph-name="fiveinferior" unicode="&#x2085;" horiz-adv-x="370" 
d="M183 100q-40 0 -59 -38l-78 6l18 257h250v-76h-173l-12 -113q29 34 83 34q56 0 90 -36t34 -110q0 -161 -156 -161q-76 0 -109 37t-37 104l92 6q3 -43 17.5 -60.5t41.5 -17.5q56 0 56 86q0 82 -58 82z" />
    <glyph glyph-name="sixinferior" unicode="&#x2086;" horiz-adv-x="387" 
d="M210 264q-34 0 -52 -33.5t-22 -112.5q31 40 92 40q53 0 88.5 -35t35.5 -104q0 -79 -41 -117.5t-114 -38.5q-84 0 -120 49.5t-36 160.5q0 260 175 260q136 0 128 -134l-90 -6q5 71 -44 71zM197 93q-63 0 -63 -74q0 -87 63 -87q61 0 61 83q0 78 -61 78z" />
    <glyph glyph-name="seveninferior" unicode="&#x2087;" horiz-adv-x="310" 
d="M171 -130h-101q4 215 126 379h-179v76h274v-54q-68 -91 -92 -181t-28 -220z" />
    <glyph glyph-name="eightinferior" unicode="&#x2088;" horiz-adv-x="400" 
d="M196 -137q-83 0 -122 35t-39 94q0 96 92 125q-73 23 -73 99q0 53 39.5 85t111.5 32q71 0 105.5 -30.5t34.5 -81.5q0 -78 -76 -102q95 -23 95 -120q0 -62 -41 -99t-127 -37zM199 -68q71 0 71 75q0 78 -70 78t-70 -80q0 -73 69 -73zM199 150q51 0 51 63q0 58 -50 58
q-51 0 -51 -60q0 -61 50 -61z" />
    <glyph glyph-name="nineinferior" unicode="&#x2089;" horiz-adv-x="387" 
d="M185 -67q68 0 72 144q-30 -40 -91 -40q-54 0 -90.5 34.5t-36.5 103.5q0 78 42 118t116 40q81 0 117.5 -49.5t36.5 -158.5q0 -131 -40 -196.5t-129 -65.5q-140 0 -142 134l90 6q2 -37 14.5 -53.5t40.5 -16.5zM194 102q63 0 63 78q0 84 -63 84q-61 0 -61 -83q0 -79 61 -79z
" />
    <glyph glyph-name="Euro" unicode="&#x20ac;" horiz-adv-x="574" 
d="M319 87q102 0 117 142l109 -10q-26 -231 -233 -231q-203 0 -237 253h-73l14 87h52v32v32h-47l14 86h41q21 134 88 201.5t171 67.5q103 0 157.5 -66.5t55.5 -179.5l-110 -10q-4 84 -30.5 120t-78.5 36q-108 0 -132 -169h177l-14 -86h-170v-28v-36h165l-14 -87h-144
q10 -80 39.5 -117t82.5 -37z" />
    <glyph glyph-name="trademark" unicode="&#x2122;" horiz-adv-x="776" 
d="M112 350v317h-100v67h285v-67h-100v-317h-85zM568 350h-68l-89 292v-292h-72v384h110l86 -294l87 294h108v-384h-75v292z" />
    <glyph glyph-name="Omega" unicode="&#x2126;" horiz-adv-x="756" 
d="M513 124v-28h148v-96h-234v143q57 24 87.5 81.5t30.5 178.5q0 241 -161 241q-77 0 -124.5 -58.5t-47.5 -190.5q0 -113 28 -169t86 -83v-143h-236v96h152v27q-165 61 -165 281q0 152 81 247.5t228 95.5q78 0 136 -25.5t91.5 -71.5t49.5 -103t16 -126q0 -214 -166 -297z
" />
    <glyph glyph-name="onethird" unicode="&#x2153;" horiz-adv-x="885" 
d="M614 266l7 -69q54 2 79 -13.5t25 -56.5q0 -31 -14.5 -48t-38.5 -17q-32 0 -45 18t-16 60l-92 -5q3 -71 37 -106.5t114 -35.5q71 0 110.5 34t39.5 100q0 91 -99 112q90 26 90 111q0 55 -38.5 84t-105.5 29q-85 0 -118 -45.5t-19 -116.5l88 6q-7 48 4 67.5t42 19.5
q51 0 51 -54q0 -39 -23.5 -55.5t-77.5 -18.5zM49 597l-19 71q68 23 122 66h65v-455h-95v352q-30 -19 -73 -34zM148 25l407 728l78 -41l-408 -730z" />
    <glyph glyph-name="twothirds" unicode="&#x2154;" horiz-adv-x="885" 
d="M649 266l7 -69q54 2 79 -13.5t25 -56.5q0 -31 -14.5 -48t-38.5 -17q-32 0 -45 18t-16 60l-92 -5q3 -71 37 -106.5t114 -35.5q71 0 110.5 34t39.5 100q0 91 -99 112q90 26 90 111q0 55 -38.5 84t-105.5 29q-85 0 -118 -45.5t-19 -116.5l88 6q-7 48 4 67.5t42 19.5
q51 0 51 -54q0 -39 -23.5 -55.5t-77.5 -18.5zM309 354h-168q2 23 21 47t45 46.5t51.5 47t43.5 58t18 70.5q0 56 -37 87t-104 31q-84 0 -118 -46.5t-20 -117.5l89 6q-15 89 45 89q23 0 36.5 -12.5t13.5 -35.5q0 -26 -17 -52.5t-42 -50.5t-51 -47.5t-47 -53t-27 -58.5
q-8 -44 -4 -84h272v76zM202 25l407 728l78 -41l-408 -730z" />
    <glyph glyph-name="partialdiff" unicode="&#x2202;" horiz-adv-x="556" 
d="M395 398q1 54 -2.5 92t-14.5 77t-36.5 59t-64.5 20q-71 0 -140 -41l-34 73q37 23 88.5 39.5t94.5 16.5q217 0 217 -305q0 -441 -255 -441q-57 0 -98.5 20t-62.5 55t-30.5 73t-9.5 83q0 51 11.5 95.5t35.5 81.5t65.5 58t97.5 21q90 0 138 -77zM378 255q0 60 -26 98t-79 38
q-115 0 -115 -171q0 -141 99 -141q58 0 89 51t32 125z" />
    <glyph glyph-name="Delta" unicode="&#x2206;" horiz-adv-x="654" 
d="M634 0h-614l230 734h152zM324 619l-151 -516h301l-148 516h-2z" />
    <glyph glyph-name="product" unicode="&#x220f;" horiz-adv-x="716" 
d="M614 734v-895h-124v795h-264v-795h-124v895h512z" />
    <glyph glyph-name="summation" unicode="&#x2211;" horiz-adv-x="584" 
d="M393 279l-233 -352h373v-103h-507v101l232 355l-210 354v100h483v-103h-346z" />
    <glyph glyph-name="minus" unicode="&#x2212;" horiz-adv-x="545" 
d="M455 295h-365v82h365v-82z" />
    <glyph glyph-name="radical" unicode="&#x221a;" horiz-adv-x="580" 
d="M368 0h-104l-127 254l-74 -32l-32 77l161 68l116 -249l159 631l89 -18z" />
    <glyph glyph-name="infinity" unicode="&#x221e;" horiz-adv-x="674" 
d="M487 184q-34 0 -65 15.5t-46 29.5t-38 40q-25 -26 -40 -39.5t-48.5 -30t-67.5 -16.5q-53 0 -92.5 34t-39.5 97q0 61 39.5 99.5t104.5 38.5q46 0 79 -22t71 -63q23 25 40 40t47.5 30t62.5 15q55 0 92.5 -35t37.5 -103q0 -55 -40 -92.5t-97 -37.5zM188 247q8 0 15.5 1.5
t15 5t13.5 6.5t13.5 9.5t12 9.5t12 11t10 10t10.5 11l8 9q-56 67 -107 67q-28 0 -45 -20t-17 -47q0 -29 14.5 -51t44.5 -22zM384 316q2 -2 11 -12t11.5 -12.5l11 -11t12 -11t11.5 -8t14 -7.5t13.5 -4t15.5 -2q27 0 43.5 21t16.5 49q0 29 -13 49.5t-43 20.5q-19 0 -39 -12
t-31 -23t-34 -37z" />
    <glyph glyph-name="integral" unicode="&#x222b;" horiz-adv-x="411" 
d="M361 732l-3 -86q-33 10 -62 10q-36 0 -47.5 -23.5t-5.5 -76.5l69 -552q11 -88 -25 -137.5t-121 -49.5q-44 0 -95 15v86q29 -9 62 -9q36 0 48.5 22.5t6.5 72.5l-68 552q-11 89 23.5 140t118.5 51q48 0 99 -15z" />
    <glyph glyph-name="approxequal" unicode="&#x2248;" horiz-adv-x="545" 
d="M137 140l-62 26q26 112 115 112q38 0 91 -23q50 -21 71 -21q37 0 54 50l62 -25q-13 -49 -41.5 -79.5t-67.5 -30.5q-32 0 -95 24q-54 20 -70 20q-38 0 -57 -53zM138 316l-62 26q26 112 115 112q38 0 91 -23q50 -21 71 -21q37 0 54 50l62 -25q-13 -49 -41.5 -79.5
t-67.5 -30.5q-32 0 -95 24q-54 20 -70 20q-38 0 -57 -53z" />
    <glyph glyph-name="notequal" unicode="&#x2260;" horiz-adv-x="545" 
d="M455 190h-206l-46 -90h-76l47 90h-84v82h126l37 73h-163v81h205l40 78h73l-40 -78h87v-81h-128l-37 -73h165v-82z" />
    <glyph glyph-name="lessequal" unicode="&#x2264;" horiz-adv-x="545" 
d="M455 0h-365v82h365v-82zM455 109l-365 130v108l365 143v-98l-276 -97l276 -89v-97z" />
    <glyph glyph-name="greaterequal" unicode="&#x2265;" horiz-adv-x="545" 
d="M455 0h-365v82h365v-82zM90 490l365 -130v-108l-365 -143v98l276 97l-276 89v97z" />
    <glyph glyph-name="lozenge" unicode="&#x25ca;" horiz-adv-x="554" 
d="M327 46h-100l-166 324l166 324h100l166 -324zM277 126l119 244l-119 243l-119 -243z" />
    <glyph glyph-name="at.case" horiz-adv-x="794" 
d="M600 131l42 -55q-40 -42 -104.5 -63.5t-138.5 -21.5q-164 0 -259.5 91t-95.5 266q0 171 101.5 275t267.5 104q151 0 244 -81t93 -236q0 -128 -44 -190t-123 -62q-82 0 -112 56q-41 -62 -123 -62q-68 0 -100.5 44t-32.5 116q0 101 45.5 173t133.5 72q61 0 92 -50l11 44h77
l-28 -239q-6 -46 3 -69.5t44 -23.5q79 0 79 176q0 138 -67.5 201t-198.5 63t-205.5 -86.5t-74.5 -225.5q0 -144 75.5 -215t203.5 -71q125 0 195 70zM462 313l11 101q4 38 -14 58.5t-52 20.5q-54 0 -78.5 -51.5t-25.5 -124.5q0 -98 67 -98q36 0 61.5 25.5t30.5 68.5z" />
    <glyph glyph-name="hyphen.case" horiz-adv-x="316" 
d="M287 292h-258v94h258v-94z" />
    <glyph glyph-name="idotaccent" horiz-adv-x="232" 
d="M57 616v118h119v-118h-119zM57 0v515h119v-515h-119z" />
    <glyph glyph-name="zero.num" horiz-adv-x="434" 
d="M214 271q-90 0 -131.5 58.5t-41.5 174.5q0 114 47.5 175.5t135.5 61.5t128.5 -57.5t40.5 -171.5q0 -241 -179 -241zM218 345q43 0 60.5 37.5t17.5 126.5q0 84 -17 120t-58 36q-42 0 -62 -37.5t-20 -120.5q0 -86 17.5 -124t61.5 -38z" />
    <glyph glyph-name="one.num" horiz-adv-x="265" 
d="M34 596l-19 71q68 23 122 66h65v-455h-95v352q-30 -19 -73 -34z" />
    <glyph glyph-name="two.num" horiz-adv-x="366" 
d="M150 354h168v-76h-272q-4 40 4 84q6 29 27 58.5t47 53t51 47.5t42 50.5t17 52.5q0 23 -13.5 35.5t-36.5 12.5q-60 0 -45 -89l-89 -6q-14 71 20 117.5t118 46.5q67 0 104 -31t37 -87q0 -37 -18 -70.5t-43.5 -58t-51.5 -47t-45 -46.5t-21 -47z" />
    <glyph glyph-name="three.num" horiz-adv-x="366" 
d="M132 475l-7 69q54 2 77.5 18.5t23.5 55.5q0 54 -51 54q-31 0 -42 -19.5t-4 -67.5l-88 -6q-14 71 19 116.5t118 45.5q67 0 105.5 -29t38.5 -84q0 -85 -90 -111q99 -21 99 -112q0 -66 -39.5 -100t-110.5 -34q-80 0 -114 35.5t-37 106.5l92 5q3 -42 16 -60t45 -18
q24 0 38.5 17t14.5 48q0 41 -25 56.5t-79 13.5z" />
    <glyph glyph-name="four.num" horiz-adv-x="363" 
d="M94 432h104v201h-2zM291 733v-301h51v-73h-51v-81h-93v81h-187v57l166 317h114z" />
    <glyph glyph-name="five.num" horiz-adv-x="370" 
d="M183 508q-40 0 -59 -38l-78 6l18 257h250v-76h-173l-12 -113q29 34 83 34q56 0 90 -36t34 -110q0 -161 -156 -161q-76 0 -109 37t-37 104l92 6q3 -43 17.5 -60.5t41.5 -17.5q56 0 56 86q0 82 -58 82z" />
    <glyph glyph-name="six.num" horiz-adv-x="387" 
d="M210 672q-34 0 -52 -33.5t-22 -112.5q31 40 92 40q53 0 88.5 -35t35.5 -104q0 -79 -41 -117.5t-114 -38.5q-84 0 -120 49.5t-36 160.5q0 260 175 260q136 0 128 -134l-90 -6q5 71 -44 71zM197 501q-63 0 -63 -74q0 -87 63 -87q61 0 61 83q0 78 -61 78z" />
    <glyph glyph-name="seven.num" horiz-adv-x="310" 
d="M171 278h-101q4 215 126 379h-179v76h274v-54q-68 -91 -92 -181t-28 -220z" />
    <glyph glyph-name="eight.num" horiz-adv-x="400" 
d="M196 271q-83 0 -122 35t-39 94q0 96 92 125q-73 23 -73 99q0 53 39.5 85t111.5 32q71 0 105.5 -30.5t34.5 -81.5q0 -78 -76 -102q95 -23 95 -120q0 -62 -41 -99t-127 -37zM199 340q71 0 71 75q0 78 -70 78t-70 -80q0 -73 69 -73zM199 558q51 0 51 63q0 58 -50 58
q-51 0 -51 -60q0 -61 50 -61z" />
    <glyph glyph-name="nine.num" horiz-adv-x="387" 
d="M185 341q68 0 72 144q-30 -40 -91 -40q-54 0 -90.5 34.5t-36.5 103.5q0 78 42 118t116 40q81 0 117.5 -49.5t36.5 -158.5q0 -131 -40 -196.5t-129 -65.5q-140 0 -142 134l90 6q2 -37 14.5 -53.5t40.5 -16.5zM194 510q63 0 63 78q0 84 -63 84q-61 0 -61 -83q0 -79 61 -79z
" />
    <glyph glyph-name="zero.denom" horiz-adv-x="434" 
d="M214 -7q-90 0 -131.5 58.5t-41.5 174.5q0 114 47.5 175.5t135.5 61.5t128.5 -57.5t40.5 -171.5q0 -241 -179 -241zM218 67q43 0 60.5 37.5t17.5 126.5q0 84 -17 120t-58 36q-42 0 -62 -37.5t-20 -120.5q0 -86 17.5 -124t61.5 -38z" />
    <glyph glyph-name="one.denom" horiz-adv-x="265" 
d="M34 318l-19 71q68 23 122 66h65v-455h-95v352q-30 -19 -73 -34z" />
    <glyph glyph-name="two.denom" horiz-adv-x="366" 
d="M150 76h168v-76h-272q-4 40 4 84q6 29 27 58.5t47 53t51 47.5t42 50.5t17 52.5q0 23 -13.5 35.5t-36.5 12.5q-60 0 -45 -89l-89 -6q-14 71 20 117.5t118 46.5q67 0 104 -31t37 -87q0 -37 -18 -70.5t-43.5 -58t-51.5 -47t-45 -46.5t-21 -47z" />
    <glyph glyph-name="three.denom" horiz-adv-x="366" 
d="M132 197l-7 69q54 2 77.5 18.5t23.5 55.5q0 54 -51 54q-31 0 -42 -19.5t-4 -67.5l-88 -6q-14 71 19 116.5t118 45.5q67 0 105.5 -29t38.5 -84q0 -85 -90 -111q99 -21 99 -112q0 -66 -39.5 -100t-110.5 -34q-80 0 -114 35.5t-37 106.5l92 5q3 -42 16 -60t45 -18
q24 0 38.5 17t14.5 48q0 41 -25 56.5t-79 13.5z" />
    <glyph glyph-name="four.denom" horiz-adv-x="363" 
d="M94 154h104v201h-2zM291 455v-301h51v-73h-51v-81h-93v81h-187v57l166 317h114z" />
    <glyph glyph-name="five.denom" horiz-adv-x="370" 
d="M183 230q-40 0 -59 -38l-78 6l18 257h250v-76h-173l-12 -113q29 34 83 34q56 0 90 -36t34 -110q0 -161 -156 -161q-76 0 -109 37t-37 104l92 6q3 -43 17.5 -60.5t41.5 -17.5q56 0 56 86q0 82 -58 82z" />
    <glyph glyph-name="six.denom" horiz-adv-x="387" 
d="M210 394q-34 0 -52 -33.5t-22 -112.5q31 40 92 40q53 0 88.5 -35t35.5 -104q0 -79 -41 -117.5t-114 -38.5q-84 0 -120 49.5t-36 160.5q0 260 175 260q136 0 128 -134l-90 -6q5 71 -44 71zM197 223q-63 0 -63 -74q0 -87 63 -87q61 0 61 83q0 78 -61 78z" />
    <glyph glyph-name="seven.denom" horiz-adv-x="310" 
d="M171 0h-101q4 215 126 379h-179v76h274v-54q-68 -91 -92 -181t-28 -220z" />
    <glyph glyph-name="eight.denom" horiz-adv-x="400" 
d="M196 -7q-83 0 -122 35t-39 94q0 96 92 125q-73 23 -73 99q0 53 39.5 85t111.5 32q71 0 105.5 -30.5t34.5 -81.5q0 -78 -76 -102q95 -23 95 -120q0 -62 -41 -99t-127 -37zM199 62q71 0 71 75q0 78 -70 78t-70 -80q0 -73 69 -73zM199 280q51 0 51 63q0 58 -50 58
q-51 0 -51 -60q0 -61 50 -61z" />
    <glyph glyph-name="nine.denom" horiz-adv-x="387" 
d="M185 63q68 0 72 144q-30 -40 -91 -40q-54 0 -90.5 34.5t-36.5 103.5q0 78 42 118t116 40q81 0 117.5 -49.5t36.5 -158.5q0 -131 -40 -196.5t-129 -65.5q-140 0 -142 134l90 6q2 -37 14.5 -53.5t40.5 -16.5zM194 232q63 0 63 78q0 84 -63 84q-61 0 -61 -83q0 -79 61 -79z
" />
    <glyph glyph-name="zero.slash" horiz-adv-x="550" 
d="M269 -12q-124 0 -181 95t-57 282q0 184 65 283t187 99q121 0 176 -93t55 -276q0 -390 -245 -390zM274 84q58 0 85 57t31 179h-234q4 -122 31 -179t87 -57zM278 649q-113 0 -122 -230h234q-3 119 -29 174.5t-83 55.5z" />
    <glyph glyph-name="zero.tf" horiz-adv-x="550" 
d="M269 -12q-124 0 -181 95t-57 282q0 184 65 283t187 99q121 0 176 -93t55 -276q0 -390 -245 -390zM274 84q64 0 90.5 69t26.5 220q0 144 -25.5 210t-87.5 66q-123 0 -123 -280q0 -148 26.5 -216.5t92.5 -68.5z" />
    <glyph glyph-name="one.tf" horiz-adv-x="550" 
d="M112 0v100h122v490q-33 -26 -121 -62l-25 97q108 43 185 109h82v-634h111v-100h-354z" />
    <glyph glyph-name="two.tf" horiz-adv-x="550" 
d="M201 102h265v-102h-396q-2 22 -2 40q0 45 6 75q7 52 39 101.5t72 88.5t79.5 77.5t66 83.5t26.5 91q0 48 -24 71t-65 23q-57 0 -74 -40.5t-6 -116.5l-113 -8q-22 113 27.5 187t171.5 74q98 0 152 -50t54 -140q0 -60 -28.5 -114.5t-69 -95.5t-81.5 -79t-70 -81t-30 -85z
" />
    <glyph glyph-name="three.tf" horiz-adv-x="550" 
d="M204 329l-8 94q82 2 120.5 31t38.5 97q0 100 -92 100q-55 0 -74.5 -36.5t-8.5 -118.5l-114 -7q-20 112 29.5 185t171.5 73q97 0 154 -47.5t57 -136.5q0 -139 -137 -177q73 -15 111 -64t38 -119q0 -103 -58.5 -159t-160.5 -56q-116 0 -166 58.5t-55 170.5l118 7
q4 -73 27.5 -106.5t77.5 -33.5q42 0 68.5 29.5t26.5 89.5q0 74 -40.5 101.5t-123.5 24.5z" />
    <glyph glyph-name="four.tf" horiz-adv-x="550" 
d="M143 244h171v341h-3zM432 734v-490h79v-103h-79v-141h-118v141h-284v81l258 512h144z" />
    <glyph glyph-name="five.tf" horiz-adv-x="550" 
d="M268 387q-68 0 -102 -69l-96 9l25 407h364v-103h-265l-21 -207q47 59 131 59t135 -60t51 -179q0 -122 -57.5 -189t-169.5 -67q-111 0 -159 60t-55 168l118 8q5 -76 30 -108t72 -32t73 39t26 114q0 150 -100 150z" />
    <glyph glyph-name="six.tf" horiz-adv-x="550" 
d="M299 651q-61 0 -91 -59.5t-37 -200.5q51 72 146 72q81 0 134.5 -57.5t53.5 -169.5q0 -123 -60 -185.5t-166 -62.5q-123 0 -176 80t-53 259q0 420 256 420q199 0 185 -214l-114 -8q8 126 -78 126zM278 372q-49 0 -78.5 -33t-29.5 -98q0 -157 110 -157q104 0 104 147
q0 71 -25.5 106t-80.5 35z" />
    <glyph glyph-name="seven.tf" horiz-adv-x="550" 
d="M290 0h-129q9 358 197 631h-291v103h414v-76q-105 -150 -145 -302t-46 -356z" />
    <glyph glyph-name="eight.tf" horiz-adv-x="550" 
d="M267 -12q-121 0 -177.5 57t-56.5 153q0 152 134 201q-107 37 -107 158q0 87 58 138.5t161 51.5t154 -49t51 -132q0 -59 -28.5 -102t-82.5 -62q139 -40 139 -193q0 -101 -60 -161t-185 -60zM270 84q61 0 91.5 35.5t30.5 97.5q0 63 -28.5 100.5t-89.5 37.5
q-59 0 -89.5 -37.5t-30.5 -103.5q0 -130 116 -130zM271 443q92 0 92 112q0 104 -90 104q-91 0 -91 -106q0 -110 89 -110z" />
    <glyph glyph-name="nine.tf" horiz-adv-x="550" 
d="M252 85q60 0 88.5 63t33.5 196q-48 -72 -143 -72q-82 0 -137 56.5t-55 165.5q0 123 61.5 188t167.5 65q119 0 172.5 -79t53.5 -253q0 -214 -58 -320.5t-188 -106.5q-204 0 -206 214l115 9q3 -68 24.5 -97t70.5 -29zM265 363q49 0 79 34t30 103q0 151 -109 151
q-55 0 -80.5 -41.5t-25.5 -106.5q0 -140 106 -140z" />
    <glyph glyph-name="dollar.tf" horiz-adv-x="550" 
d="M502 512l-110 -19q-11 106 -70 129v-200q35 -10 55.5 -16.5t49.5 -22.5t45 -34.5t28 -50t12 -71.5q0 -92 -52 -147t-138 -68v-77h-81v75q-97 7 -147.5 61t-60.5 162l117 16q6 -62 26.5 -96t64.5 -43v217q-35 9 -55.5 16t-49.5 22.5t-44.5 35t-27.5 51.5t-12 74
q0 84 52 135.5t137 61.5v74h81v-73q165 -21 180 -212zM392 206q0 65 -70 96v-191q70 18 70 95zM241 624q-66 -15 -66 -86q0 -61 66 -90v176z" />
    <glyph glyph-name="Euro.tf" horiz-adv-x="550" 
d="M312 87q51 0 76 35.5t32 102.5l109 -9q-26 -228 -222 -228q-197 0 -230 253h-72l14 87h51v32v32h-47l14 86h41q20 134 85 201.5t165 67.5q99 0 151 -65t53 -177l-110 -10q-4 83 -28 117.5t-72 34.5q-101 0 -125 -169h170l-14 -86h-162v-28v-36h157l-13 -87h-138
q20 -154 115 -154z" />
    <glyph glyph-name="cent.tf" horiz-adv-x="550" 
d="M236 693h81v-78q78 -10 116 -61t41 -130l-105 -8q-6 81 -52 103v-343q41 17 51 95l104 -6q-16 -160 -155 -183v-84h-81v83q-98 11 -142.5 80t-44.5 181q0 116 48.5 186.5t138.5 84.5v80zM172 345q0 -141 64 -168v341q-64 -31 -64 -173z" />
    <glyph glyph-name="sterling.tf" horiz-adv-x="550" 
d="M48 322v89h72q-40 70 -40 139q0 88 58 142.5t162 54.5q108 0 161.5 -66.5t36.5 -186.5l-114 8q10 82 -12.5 115.5t-74.5 33.5q-44 0 -70.5 -25.5t-26.5 -73.5q0 -27 9 -54.5t16.5 -42.5t25.5 -44h174v-89h-133q5 -22 5 -41q0 -78 -101 -179h295v-102h-414v101
q104 94 104 171q0 25 -11 50h-122z" />
    <glyph glyph-name="yen.tf" horiz-adv-x="550" 
d="M444 328h-109v-67h109v-89h-109v-172h-122v172h-118v89h118v67h-118v88h80l-170 318h137l133 -291l137 291h128l-170 -318h74v-88z" />
    <glyph glyph-name="florin.tf" horiz-adv-x="550" 
d="M96 370l15 87h95l19 106q17 96 62 140t130 44q50 0 96 -18l-26 -83q-30 10 -60 10q-37 0 -57.5 -24t-29.5 -76l-18 -99h123l-16 -87h-122l-57 -331q-16 -92 -62.5 -135.5t-133.5 -43.5q-43 0 -91 15l26 86q30 -10 60 -10q36 0 56 23t29 73l57 323h-95z" />
    <glyph glyph-name="comma.tf" horiz-adv-x="269" 
d="M73 0v130h128v-110l-68 -155l-51 15l28 120h-37z" />
    <glyph glyph-name="period.tf" horiz-adv-x="273" 
d="M74 0v130h125v-130h-125z" />
    <glyph glyph-name="perthousand.tf" horiz-adv-x="550" 
d="M20 398h504v-67h-504v67zM137 -10q-121 0 -121 151q0 71 34.5 113t93.5 42t89 -39t30 -111q0 -75 -31.5 -115.5t-94.5 -40.5zM405 -10q-121 0 -121 151q0 72 34 113.5t94 41.5q118 0 118 -150q0 -75 -31.5 -115.5t-93.5 -40.5zM407 48q50 0 50 97q0 92 -47 92
q-52 0 -52 -94q0 -95 49 -95zM138 432q-122 0 -122 152q0 71 34.5 112.5t94.5 41.5q118 0 118 -149q0 -74 -31.5 -115.5t-93.5 -41.5zM140 48q49 0 49 97q0 47 -10.5 69.5t-36.5 22.5q-52 0 -52 -94q0 -95 50 -95zM140 491q49 0 49 97q0 92 -48 92q-51 0 -51 -94
q0 -95 50 -95z" />
    <glyph glyph-name="percent.tf" horiz-adv-x="550" 
d="M57 398h429v-67h-429v67zM267 -10q-62 0 -92 40t-30 111t34.5 113t93.5 42t89 -39.5t30 -110.5q0 -75 -32 -115.5t-93 -40.5zM269 48q50 0 50 97q0 92 -48 92q-52 0 -52 -94q0 -95 50 -95zM268 432q-121 0 -121 152q0 71 34.5 112.5t93.5 41.5q118 0 118 -149
q0 -74 -31.5 -115.5t-93.5 -41.5zM270 491q50 0 50 97q0 92 -48 92q-52 0 -52 -94q0 -95 50 -95z" />
    <glyph glyph-name="commaaccent" 
d="M197 -152v107h105v-89l-45 -118l-50 12l22 88h-32z" />
    <glyph glyph-name="revcommaaccent" 
d="M302 685v-107h-105v90l45 117l50 -12l-22 -88h32z" />
    <glyph glyph-name="tilde.cap" 
d="M158 780l-53 8q20 105 86 105q25 0 63.5 -14.5t53.5 -14.5q24 0 35 40l51 -8q-20 -108 -85 -108q-28 0 -67 14t-51 14q-25 0 -33 -36z" />
    <glyph glyph-name="ring.cap" 
d="M248 761q-99 0 -99 91q0 41 29 66t74 25q49 0 75 -23.5t26 -64.5q0 -44 -27 -69t-78 -25zM250 808q33 0 33 45q0 43 -32 43q-36 0 -36 -44t35 -44z" />
    <glyph glyph-name="circumflex.cap" 
d="M219 918h63l119 -114l-35 -43l-117 74l-115 -74l-34 43z" />
    <glyph glyph-name="acute.cap" 
d="M320 928l48 -83l-178 -83l-32 55z" />
    <glyph glyph-name="grave.cap" 
d="M130 845l50 82l161 -110l-34 -55z" />
    <glyph glyph-name="dieresis.cap" 
d="M284 781v106h94v-106h-94zM122 781v106h94v-106h-94z" />
    <glyph glyph-name="caron.cap" 
d="M281 767h-63l-118 111l35 44l115 -73l115 73l34 -44z" />
    <glyph glyph-name="macron.cap" 
d="M117 795v81h266v-81h-266z" />
    <glyph glyph-name="dotaccent.cap" 
d="M190 785v118h120v-118h-120z" />
    <glyph glyph-name="cedilla.cap" 
d="M200 -85l35 85h55l-23 -48q11 5 28 5q36 0 57.5 -23t21.5 -61q0 -43 -29.5 -69t-78.5 -26q-66 0 -107 51l41 38q25 -29 55 -29q36 0 36 37q0 35 -32 35q-13 0 -27 -9z" />
    <glyph glyph-name="hungarumlaut.cap" 
d="M441 923l49 -67l-162 -92l-32 45zM271 933l54 -68l-153 -99l-33 42z" />
    <glyph glyph-name="commaaccent.cap" 
d="M197 -152v107h105v-89l-45 -118l-50 12l22 88h-32z" />
    <glyph glyph-name="breve.cap" 
d="M107 902l62 12q19 -69 82 -69q33 0 53 15.5t35 53.5l58 -12q-25 -135 -149 -135q-122 0 -141 135z" />
    <glyph glyph-name="caron.alt" 
d="M212 734h94l-33 -193l-58 3z" />
    </font>
</defs>
</svg>
